<svg width="651" height="272" viewBox="0 0 651 272" fill="none"
										xmlns="http://www.w3.org/2000/svg">
										<path
											d="M5.57004 266.51V260.469H6.69504V266.51C6.69504 267.072 6.58004 267.547 6.35004 267.934C6.12004 268.321 5.80103 268.615 5.39503 268.818C4.98903 269.021 4.52903 269.117 4.00603 269.117C3.48303 269.117 3.01802 269.027 2.61102 268.848C2.20402 268.669 1.88704 268.395 1.65604 268.027C1.42504 267.659 1.31104 267.197 1.31104 266.639H2.44102C2.44102 266.998 2.50804 267.293 2.64104 267.523C2.76572 267.747 2.9583 267.926 3.19102 268.033C3.43002 268.143 3.70103 268.197 4.00603 268.197C4.30303 268.197 4.56802 268.135 4.80302 268.01C5.04241 267.88 5.23797 267.682 5.36504 267.441C5.50204 267.188 5.57004 266.877 5.57004 266.51ZM12.186 267.916V264.652C12.186 264.402 12.135 264.186 12.033 264.002C11.931 263.818 11.787 263.67 11.588 263.568C11.389 263.466 11.143 263.416 10.85 263.416C10.576 263.416 10.336 263.463 10.129 263.557C9.94085 263.639 9.77565 263.765 9.64803 263.926C9.53503 264.078 9.47903 264.242 9.47903 264.418H8.39503C8.39503 264.191 8.45304 263.967 8.57004 263.744C8.68704 263.521 8.85504 263.32 9.07404 263.141C9.29304 262.962 9.56203 262.812 9.87103 262.707C10.2074 262.596 10.5597 262.54 10.914 262.543C11.375 262.543 11.781 262.621 12.133 262.777C12.485 262.933 12.766 263.17 12.965 263.486C13.164 263.802 13.27 264.191 13.27 264.664V267.617C13.27 267.828 13.287 268.053 13.322 268.291C13.3518 268.503 13.4089 268.709 13.492 268.906V269H12.361C12.2977 268.84 12.2544 268.673 12.232 268.502C12.2025 268.308 12.1871 268.112 12.186 267.916ZM12.373 265.156L12.385 265.918H11.289C10.98 265.918 10.705 265.943 10.463 265.994C10.221 266.045 10.018 266.113 9.85403 266.211C9.6992 266.299 9.56998 266.427 9.47903 266.58C9.39036 266.735 9.34575 266.911 9.35004 267.09C9.35004 267.289 9.39502 267.471 9.48402 267.635C9.57725 267.803 9.71821 267.939 9.88904 268.027C10.069 268.124 10.297 268.168 10.562 268.168C10.895 268.168 11.188 268.098 11.441 267.957C11.6777 267.831 11.8839 267.655 12.045 267.441C12.197 267.238 12.279 267.041 12.291 266.85L12.754 267.371C12.7147 267.565 12.6391 267.75 12.531 267.916C12.41 268.115 12.248 268.307 12.045 268.49C11.842 268.673 11.607 268.82 11.33 268.941C11.053 269.062 10.748 269.117 10.404 269.117C9.97504 269.117 9.59803 269.033 9.27303 268.865C8.94803 268.697 8.70303 268.473 8.52303 268.191C8.34303 267.909 8.26003 267.588 8.26003 267.236C8.26003 266.896 8.32603 266.598 8.45903 266.34C8.59194 266.078 8.78949 265.854 9.03304 265.689C9.28304 265.514 9.58404 265.381 9.93604 265.291C10.288 265.201 10.68 265.156 11.113 265.156H12.373ZM16.059 264.014V269H14.975V262.66H16L16.059 264.014ZM15.801 265.59L15.35 265.572C15.354 265.139 15.418 264.738 15.543 264.371C15.6588 264.019 15.8373 263.692 16.07 263.404C16.2895 263.136 16.5658 262.919 16.879 262.771C17.2069 262.616 17.5656 262.539 17.928 262.543C18.24 262.543 18.521 262.586 18.771 262.672C19.021 262.758 19.234 262.887 19.41 263.07C19.586 263.253 19.727 263.492 19.82 263.785C19.913 264.078 19.961 264.428 19.961 264.846V269H18.871V264.834C18.871 264.502 18.822 264.236 18.725 264.037C18.628 263.838 18.484 263.688 18.297 263.598C18.11 263.508 17.879 263.457 17.605 263.457C17.349 263.454 17.096 263.512 16.867 263.627C16.648 263.74 16.459 263.896 16.299 264.096C16.139 264.302 16.0143 264.534 15.93 264.781C15.844 265.035 15.801 265.305 15.801 265.59ZM59.121 260.469V269H57.99V260.469H59.121ZM62.695 264.307V265.232H58.875V264.307H62.695ZM63.275 260.469V261.395H58.875V260.469H63.275ZM66.961 269.117C66.52 269.117 66.119 269.043 65.76 268.895C65.4112 268.75 65.0975 268.532 64.84 268.256C64.5814 267.974 64.3821 267.643 64.254 267.283C64.1139 266.888 64.0445 266.472 64.049 266.053V265.807C64.049 265.291 64.125 264.832 64.277 264.43C64.4155 264.049 64.6264 263.699 64.898 263.398C65.1475 263.126 65.451 262.909 65.789 262.76C66.1138 262.617 66.465 262.543 66.82 262.543C67.273 262.543 67.664 262.621 67.992 262.777C68.3139 262.925 68.594 263.151 68.807 263.434C69.0262 263.728 69.1852 264.062 69.275 264.418C69.377 264.793 69.428 265.203 69.428 265.648V266.135H64.693V265.25H68.344V265.168C68.3284 264.887 68.269 264.611 68.168 264.348C68.07 264.082 67.914 263.863 67.699 263.691C67.484 263.519 67.191 263.434 66.82 263.434C66.574 263.434 66.348 263.486 66.141 263.592C65.9283 263.698 65.7449 263.855 65.607 264.049C65.459 264.252 65.344 264.5 65.262 264.793C65.18 265.086 65.139 265.424 65.139 265.807V266.053C65.139 266.354 65.18 266.637 65.262 266.902C65.3398 267.154 65.4651 267.389 65.631 267.594C65.7922 267.791 65.9942 267.951 66.223 268.062C66.457 268.176 66.723 268.232 67.02 268.232C67.402 268.232 67.727 268.154 67.992 267.998C68.257 267.842 68.49 267.633 68.689 267.371L69.346 267.893C69.209 268.1 69.035 268.297 68.824 268.484C68.5947 268.683 68.3306 268.838 68.045 268.941C67.74 269.059 67.379 269.117 66.961 269.117ZM70.688 260H71.777V267.77L71.684 269H70.688V260ZM76.061 265.777V265.9C76.0646 266.334 76.0091 266.766 75.896 267.184C75.787 267.574 75.627 267.914 75.416 268.203C75.205 268.492 74.947 268.717 74.643 268.877C74.339 269.037 73.988 269.117 73.594 269.117C73.191 269.117 72.838 269.049 72.533 268.912C72.2354 268.773 71.9744 268.567 71.771 268.309C71.5516 268.023 71.3831 267.702 71.273 267.359C71.152 266.988 71.068 266.57 71.021 266.105V265.566C71.068 265.098 71.152 264.678 71.273 264.307C71.3831 263.964 71.5516 263.643 71.771 263.357C71.9722 263.097 72.2338 262.89 72.533 262.754C72.834 262.613 73.184 262.543 73.582 262.543C73.98 262.543 74.334 262.621 74.643 262.777C74.9507 262.929 75.2162 263.155 75.416 263.434C75.627 263.719 75.787 264.061 75.896 264.459C76.005 264.857 76.061 265.293 76.061 265.777ZM74.971 265.9V265.777C74.9724 265.478 74.9429 265.18 74.883 264.887C74.824 264.605 74.73 264.359 74.602 264.148C74.4778 263.94 74.3022 263.766 74.092 263.645C73.881 263.524 73.621 263.457 73.312 263.457C73.039 263.457 72.801 263.504 72.598 263.598C72.4031 263.688 72.2292 263.817 72.088 263.979C71.9445 264.139 71.8277 264.321 71.742 264.518C71.656 264.717 71.592 264.924 71.549 265.139V266.551C71.6126 266.828 71.7153 267.094 71.854 267.342C71.998 267.592 72.189 267.797 72.428 267.957C72.667 268.117 72.969 268.197 73.324 268.197C73.617 268.197 73.867 268.139 74.074 268.021C74.2836 267.901 74.4591 267.73 74.584 267.523C74.7226 267.297 74.8217 267.05 74.877 266.791C74.939 266.514 74.971 266.217 74.971 265.9ZM114.348 260.469H115.443L118.238 267.424L121.027 260.469H122.129L118.66 269H117.805L114.348 260.469ZM113.99 260.469H114.957L115.115 265.672V269H113.99V260.469ZM121.514 260.469H122.48V269H121.355V265.672L121.514 260.469ZM128.041 267.916V264.652C128.041 264.402 127.99 264.186 127.889 264.002C127.788 263.818 127.643 263.67 127.443 263.568C127.243 263.466 126.998 263.416 126.705 263.416C126.457 263.411 126.212 263.459 125.984 263.557C125.796 263.638 125.631 263.765 125.504 263.926C125.395 264.067 125.335 264.24 125.334 264.418H124.25C124.25 264.191 124.309 263.967 124.426 263.744C124.543 263.521 124.711 263.32 124.93 263.141C125.149 262.962 125.418 262.812 125.727 262.707C126.063 262.596 126.416 262.54 126.77 262.543C127.23 262.543 127.637 262.621 127.988 262.777C128.331 262.923 128.621 263.17 128.82 263.486C129.023 263.799 129.125 264.191 129.125 264.664V267.617C129.126 267.843 129.144 268.068 129.178 268.291C129.217 268.529 129.273 268.734 129.348 268.906V269H128.217C128.153 268.84 128.109 268.673 128.088 268.502C128.058 268.308 128.042 268.112 128.041 267.916ZM128.229 265.156L128.24 265.918H127.145C126.836 265.918 126.561 265.943 126.318 265.994C126.075 266.045 125.873 266.113 125.709 266.211C125.545 266.309 125.42 266.432 125.334 266.58C125.245 266.735 125.201 266.911 125.205 267.09C125.205 267.289 125.25 267.471 125.34 267.635C125.43 267.799 125.564 267.93 125.744 268.027C125.924 268.124 126.152 268.168 126.418 268.168C126.724 268.175 127.027 268.102 127.297 267.957C127.551 267.816 127.752 267.645 127.9 267.441C128.048 267.237 128.135 267.041 128.146 266.85L128.609 267.371C128.582 267.535 128.508 267.717 128.387 267.916C128.266 268.115 128.104 268.307 127.9 268.49C127.696 268.673 127.463 268.82 127.186 268.941C126.909 269.062 126.604 269.117 126.26 269.117C125.83 269.117 125.453 269.033 125.129 268.865C124.805 268.697 124.559 268.473 124.379 268.191C124.202 267.904 124.111 267.573 124.115 267.236C124.115 266.896 124.182 266.598 124.314 266.34C124.446 266.082 124.639 265.861 124.889 265.689C125.163 265.503 125.469 265.368 125.791 265.291C126.143 265.201 126.535 265.156 126.969 265.156H128.229ZM131.914 263.656V269H130.83V262.66H131.885L131.914 263.656ZM133.895 262.625L133.889 263.633C133.804 263.614 133.718 263.602 133.631 263.598C133.541 263.589 133.451 263.585 133.361 263.586C133.111 263.586 132.891 263.625 132.699 263.703C132.515 263.776 132.35 263.888 132.213 264.031C132.077 264.178 131.969 264.349 131.896 264.535C131.822 264.727 131.773 264.938 131.75 265.168L131.445 265.344C131.443 264.982 131.48 264.62 131.557 264.266C131.635 263.93 131.754 263.633 131.914 263.375C132.063 263.124 132.272 262.915 132.523 262.766C132.773 262.617 133.07 262.543 133.414 262.543C133.505 262.545 133.595 262.554 133.684 262.572C133.785 262.588 133.855 262.605 133.895 262.625ZM175.148 261.225L172.324 269H171.17L174.422 260.469H175.166L175.148 261.225ZM177.516 269L174.686 261.225L174.668 260.469H175.412L178.676 269H177.516ZM177.369 265.842V266.768H172.576V265.842H177.369ZM180.738 263.879V271.438H179.648V262.66H180.645L180.738 263.879ZM185.01 265.777V265.9C185.01 266.361 184.955 266.789 184.846 267.184C184.748 267.55 184.585 267.895 184.365 268.203C184.166 268.485 183.903 268.716 183.598 268.877C183.293 269.037 182.943 269.117 182.549 269.117C182.146 269.117 181.791 269.051 181.482 268.918C181.179 268.789 180.91 268.59 180.697 268.338C180.482 268.084 180.311 267.779 180.182 267.424C180.053 267.069 179.971 266.668 179.924 266.223V265.566C179.971 265.098 180.059 264.678 180.188 264.307C180.317 263.936 180.486 263.619 180.697 263.357C180.905 263.097 181.173 262.89 181.477 262.754C181.781 262.613 182.133 262.543 182.531 262.543C182.898 262.536 183.262 262.616 183.592 262.777C183.901 262.93 184.168 263.155 184.371 263.434C184.582 263.719 184.74 264.061 184.846 264.459C184.958 264.889 185.013 265.332 185.01 265.777ZM183.92 265.9V265.777C183.922 265.477 183.889 265.179 183.82 264.887C183.754 264.605 183.65 264.359 183.51 264.148C183.37 263.937 183.197 263.766 182.982 263.645C182.747 263.517 182.483 263.452 182.215 263.457C181.941 263.457 181.703 263.504 181.5 263.598C181.305 263.688 181.131 263.818 180.99 263.979C180.85 264.135 180.734 264.314 180.645 264.518C180.559 264.718 180.494 264.926 180.451 265.139V266.656C180.528 266.927 180.638 267.187 180.779 267.43C180.92 267.668 181.107 267.861 181.342 268.01C181.577 268.159 181.871 268.227 182.227 268.227C182.52 268.227 182.771 268.166 182.982 268.045C183.197 267.92 183.378 267.745 183.51 267.535C183.655 267.309 183.76 267.059 183.82 266.797C183.888 266.503 183.922 266.202 183.92 265.9ZM187.477 263.656V269H186.393V262.66H187.447L187.477 263.656ZM189.457 262.625L189.451 263.633C189.366 263.614 189.28 263.602 189.193 263.598C189.104 263.59 189.014 263.585 188.924 263.586C188.674 263.586 188.453 263.625 188.262 263.703C188.071 263.781 187.908 263.891 187.775 264.031C187.639 264.178 187.532 264.349 187.459 264.535C187.385 264.727 187.336 264.938 187.312 265.168L187.008 265.344C187.008 264.961 187.045 264.602 187.119 264.266C187.193 263.93 187.316 263.633 187.477 263.375C187.626 263.124 187.835 262.915 188.086 262.766C188.336 262.617 188.633 262.543 188.977 262.543C189.067 262.544 189.157 262.554 189.246 262.572C189.318 262.58 189.389 262.598 189.457 262.625ZM227.348 260.469H228.443L231.238 267.424L234.027 260.469H235.129L231.66 269H230.805L227.348 260.469ZM226.99 260.469H227.957L228.115 265.672V269H226.99V260.469ZM234.514 260.469H235.48V269H234.355V265.672L234.514 260.469ZM241.041 267.916V264.652C241.041 264.402 240.99 264.186 240.889 264.002C240.788 263.818 240.643 263.67 240.443 263.568C240.243 263.466 239.998 263.416 239.705 263.416C239.457 263.411 239.212 263.459 238.984 263.557C238.796 263.638 238.631 263.765 238.504 263.926C238.395 264.067 238.335 264.24 238.334 264.418H237.25C237.25 264.191 237.309 263.967 237.426 263.744C237.543 263.521 237.711 263.32 237.93 263.141C238.149 262.962 238.418 262.812 238.727 262.707C239.063 262.596 239.416 262.54 239.77 262.543C240.23 262.543 240.637 262.621 240.988 262.777C241.331 262.923 241.621 263.17 241.82 263.486C242.023 263.799 242.125 264.191 242.125 264.664V267.617C242.126 267.843 242.144 268.068 242.178 268.291C242.217 268.529 242.273 268.734 242.348 268.906V269H241.217C241.153 268.84 241.109 268.673 241.088 268.502C241.058 268.308 241.042 268.112 241.041 267.916ZM241.229 265.156L241.24 265.918H240.145C239.836 265.918 239.561 265.943 239.318 265.994C239.075 266.045 238.873 266.113 238.709 266.211C238.545 266.309 238.42 266.432 238.334 266.58C238.245 266.735 238.201 266.911 238.205 267.09C238.205 267.289 238.25 267.471 238.34 267.635C238.43 267.799 238.564 267.93 238.744 268.027C238.924 268.124 239.152 268.168 239.418 268.168C239.724 268.175 240.027 268.102 240.297 267.957C240.551 267.816 240.752 267.645 240.9 267.441C241.048 267.237 241.135 267.041 241.146 266.85L241.609 267.371C241.582 267.535 241.508 267.717 241.387 267.916C241.266 268.115 241.104 268.307 240.9 268.49C240.696 268.673 240.463 268.82 240.186 268.941C239.909 269.062 239.604 269.117 239.26 269.117C238.83 269.117 238.453 269.033 238.129 268.865C237.805 268.697 237.559 268.473 237.379 268.191C237.202 267.904 237.111 267.573 237.115 267.236C237.115 266.896 237.182 266.598 237.314 266.34C237.446 266.082 237.639 265.861 237.889 265.689C238.163 265.503 238.469 265.368 238.791 265.291C239.143 265.201 239.535 265.156 239.969 265.156H241.229ZM245.518 268.344L247.281 262.66H248.441L245.898 269.979C245.84 270.135 245.762 270.303 245.664 270.482C245.566 270.661 245.449 270.84 245.301 271.004C245.153 271.168 244.973 271.301 244.762 271.402C244.551 271.503 244.307 271.561 244.018 271.561C243.932 271.561 243.822 271.549 243.689 271.525L243.408 271.467L243.402 270.588L243.549 270.6L243.695 270.611C243.941 270.611 244.15 270.578 244.322 270.512C244.495 270.449 244.646 270.336 244.756 270.189C244.877 270.041 244.98 269.836 245.066 269.574L245.518 268.344ZM244.223 262.66L245.869 267.582L246.15 268.725L245.371 269.123L243.039 262.66H244.223ZM289.57 266.51V260.469H290.695V266.51C290.695 267.072 290.58 267.547 290.35 267.934C290.12 268.321 289.801 268.615 289.395 268.818C288.989 269.021 288.529 269.117 288.006 269.117C287.483 269.117 287.018 269.027 286.611 268.848C286.204 268.669 285.887 268.395 285.656 268.027C285.425 267.659 285.311 267.197 285.311 266.639H286.441C286.441 266.998 286.508 267.293 286.641 267.523C286.766 267.747 286.958 267.926 287.191 268.033C287.43 268.143 287.701 268.197 288.006 268.197C288.303 268.197 288.568 268.135 288.803 268.01C289.042 267.88 289.238 267.682 289.365 267.441C289.502 267.188 289.57 266.877 289.57 266.51ZM296.326 267.535V262.66H297.416V269H296.379L296.326 267.535ZM296.531 266.199L296.982 266.188C296.982 266.609 296.938 267 296.848 267.359C296.758 267.718 296.621 268.023 296.426 268.285C296.226 268.551 295.961 268.763 295.658 268.9C295.342 269.045 294.957 269.117 294.504 269.117C294.195 269.117 293.912 269.072 293.654 268.982C293.396 268.892 293.182 268.754 292.998 268.566C292.814 268.378 292.672 268.135 292.57 267.834C292.468 267.533 292.424 267.172 292.424 266.75V262.66H293.508V266.762C293.508 267.047 293.539 267.283 293.602 267.471C293.654 267.636 293.744 267.786 293.865 267.91C293.972 268.012 294.1 268.088 294.24 268.133C294.381 268.176 294.525 268.197 294.674 268.197C295.135 268.197 295.5 268.109 295.77 267.934C296.034 267.76 296.237 267.508 296.35 267.213C296.471 266.908 296.531 266.57 296.531 266.199ZM300.152 264.014V269H299.068V262.66H300.094L300.152 264.014ZM299.895 265.59L299.443 265.572C299.447 265.139 299.512 264.738 299.637 264.371C299.753 264.019 299.931 263.692 300.164 263.404C300.383 263.136 300.66 262.919 300.973 262.771C301.301 262.618 301.659 262.54 302.021 262.543C302.334 262.543 302.615 262.586 302.865 262.672C303.115 262.758 303.328 262.887 303.504 263.07C303.68 263.253 303.82 263.492 303.914 263.785C304.008 264.078 304.055 264.428 304.055 264.846V269H302.965V264.834C302.965 264.502 302.916 264.236 302.818 264.037C302.731 263.845 302.58 263.69 302.391 263.598C302.203 263.504 301.973 263.457 301.699 263.457C301.443 263.454 301.19 263.512 300.961 263.627C300.742 263.74 300.553 263.896 300.393 264.096C300.232 264.302 300.107 264.534 300.023 264.781C299.938 265.035 299.895 265.305 299.895 265.59ZM345.57 266.51V260.469H346.695V266.51C346.695 267.072 346.58 267.547 346.35 267.934C346.12 268.321 345.801 268.615 345.395 268.818C344.989 269.021 344.529 269.117 344.006 269.117C343.483 269.117 343.018 269.027 342.611 268.848C342.204 268.669 341.887 268.395 341.656 268.027C341.425 267.659 341.311 267.197 341.311 266.639H342.441C342.441 266.998 342.508 267.293 342.641 267.523C342.766 267.747 342.958 267.926 343.191 268.033C343.43 268.143 343.701 268.197 344.006 268.197C344.303 268.197 344.568 268.135 344.803 268.01C345.042 267.88 345.238 267.682 345.365 267.441C345.502 267.188 345.57 266.877 345.57 266.51ZM352.326 267.535V262.66H353.416V269H352.379L352.326 267.535ZM352.531 266.199L352.982 266.188C352.982 266.609 352.938 267 352.848 267.359C352.758 267.718 352.621 268.023 352.426 268.285C352.226 268.551 351.961 268.763 351.658 268.9C351.342 269.045 350.957 269.117 350.504 269.117C350.195 269.117 349.912 269.072 349.654 268.982C349.396 268.892 349.182 268.754 348.998 268.566C348.814 268.378 348.672 268.135 348.57 267.834C348.468 267.533 348.424 267.172 348.424 266.75V262.66H349.508V266.762C349.508 267.047 349.539 267.283 349.602 267.471C349.654 267.636 349.744 267.786 349.865 267.91C349.972 268.012 350.1 268.088 350.24 268.133C350.381 268.176 350.525 268.197 350.674 268.197C351.135 268.197 351.5 268.109 351.77 267.934C352.034 267.76 352.237 267.508 352.35 267.213C352.471 266.908 352.531 266.57 352.531 266.199ZM356.246 260V269H355.156V260H356.246ZM398.148 261.225L395.324 269H394.17L397.422 260.469H398.166L398.148 261.225ZM400.516 269L397.686 261.225L397.668 260.469H398.412L401.676 269H400.516ZM400.369 265.842V266.768H395.576V265.842H400.369ZM406.463 267.535V262.66H407.553V269H406.516L406.463 267.535ZM406.668 266.199L407.119 266.188C407.119 266.609 407.074 267 406.984 267.359C406.894 267.718 406.758 268.023 406.562 268.285C406.366 268.547 406.111 268.752 405.795 268.9C405.479 269.048 405.094 269.117 404.641 269.117C404.332 269.117 404.049 269.072 403.791 268.982C403.543 268.897 403.318 268.755 403.135 268.566C402.952 268.378 402.809 268.135 402.707 267.834C402.605 267.533 402.561 267.172 402.561 266.75V262.66H403.645V266.762C403.645 267.047 403.676 267.283 403.738 267.471C403.793 267.635 403.883 267.785 404.002 267.91C404.115 268.016 404.24 268.09 404.377 268.133C404.514 268.176 404.662 268.197 404.811 268.197C405.271 268.197 405.637 268.109 405.906 267.934C406.171 267.761 406.374 267.508 406.486 267.213C406.607 266.908 406.668 266.57 406.668 266.199ZM413.312 262.66H414.297V268.865C414.297 269.424 414.184 269.9 413.957 270.295C413.738 270.682 413.407 270.994 413.008 271.191C412.605 271.398 412.141 271.502 411.613 271.502C411.395 271.502 411.137 271.467 410.84 271.396C410.543 271.325 410.258 271.215 409.973 271.051C409.691 270.89 409.448 270.668 409.264 270.4L409.832 269.756C410.098 270.076 410.375 270.299 410.664 270.424C410.953 270.549 411.246 270.611 411.531 270.611C411.839 270.619 412.145 270.553 412.422 270.418C412.67 270.291 412.873 270.091 413.002 269.844C413.143 269.594 413.213 269.285 413.213 268.918V264.055L413.312 262.66ZM408.947 265.9V265.777C408.947 265.293 409.004 264.854 409.117 264.459C409.23 264.064 409.4 263.719 409.615 263.434C409.824 263.156 410.095 262.931 410.406 262.777C410.73 262.617 411.088 262.537 411.449 262.543C411.848 262.543 412.195 262.613 412.492 262.754C412.789 262.895 413.047 263.092 413.254 263.357C413.461 263.622 413.631 263.936 413.752 264.307C413.873 264.678 413.957 265.098 414.004 265.566V266.105C413.969 266.531 413.884 266.952 413.752 267.359C413.631 267.73 413.465 268.047 413.254 268.309C413.043 268.571 412.793 268.771 412.492 268.912C412.191 269.053 411.84 269.117 411.438 269.117C411.08 269.122 410.725 269.04 410.406 268.877C410.102 268.717 409.84 268.492 409.621 268.203C409.402 267.914 409.234 267.574 409.117 267.184C409 266.794 408.947 266.361 408.947 265.9ZM410.031 265.777V265.9C410.031 266.217 410.062 266.514 410.125 266.791C410.184 267.05 410.285 267.297 410.424 267.523C410.555 267.729 410.734 267.899 410.945 268.021C411.156 268.139 411.408 268.197 411.701 268.197C412.061 268.197 412.357 268.121 412.592 267.969C412.826 267.818 413.017 267.61 413.148 267.365C413.289 267.108 413.4 266.834 413.477 266.551V265.139C413.434 264.924 413.367 264.717 413.277 264.518C413.195 264.321 413.08 264.138 412.938 263.979C412.801 263.818 412.631 263.691 412.428 263.598C412.203 263.5 411.959 263.451 411.713 263.457C411.416 263.457 411.16 263.52 410.945 263.645C410.733 263.768 410.554 263.94 410.424 264.148C410.284 264.376 410.183 264.626 410.125 264.887C410.061 265.179 410.029 265.478 410.031 265.777ZM457.537 266.844C457.537 266.645 457.506 266.469 457.443 266.316C457.377 266.15 457.268 266.005 457.127 265.895C456.979 265.77 456.771 265.65 456.506 265.537C456.241 265.424 455.912 265.309 455.51 265.191C455.088 265.066 454.707 264.928 454.367 264.775C454.054 264.637 453.76 264.458 453.494 264.242C453.252 264.043 453.066 263.814 452.938 263.557C452.81 263.3 452.744 263.004 452.744 262.672C452.741 262.354 452.811 262.039 452.949 261.752C453.086 261.471 453.281 261.227 453.535 261.02C453.809 260.801 454.121 260.634 454.455 260.527C454.81 260.409 455.207 260.352 455.645 260.352C456.285 260.352 456.828 260.475 457.273 260.721C457.697 260.939 458.052 261.269 458.299 261.676C458.533 262.066 458.65 262.484 458.65 262.93H457.525C457.525 262.609 457.457 262.326 457.32 262.08C457.183 261.834 456.977 261.635 456.699 261.494C456.421 261.353 456.07 261.277 455.645 261.277C455.242 261.277 454.91 261.338 454.648 261.459C454.408 261.562 454.205 261.733 454.062 261.951C453.938 262.158 453.875 262.395 453.875 262.66C453.875 262.84 453.912 263.004 453.986 263.152C454.06 263.3 454.184 263.432 454.344 263.557C454.504 263.682 454.715 263.797 454.965 263.902C455.215 264.007 455.521 264.109 455.873 264.207C456.303 264.324 456.723 264.477 457.127 264.664C457.479 264.832 457.768 265.021 457.994 265.232C458.22 265.443 458.395 265.676 458.504 265.941C458.621 266.223 458.679 266.526 458.674 266.832C458.674 267.18 458.604 267.494 458.463 267.775C458.322 268.056 458.121 268.297 457.859 268.496C457.597 268.695 457.283 268.85 456.916 268.959C456.519 269.07 456.109 269.124 455.697 269.117C455.303 269.117 454.91 269.062 454.531 268.953C454.152 268.844 453.807 268.68 453.494 268.461C453.191 268.248 452.937 267.972 452.75 267.652C452.566 267.328 452.475 266.953 452.475 266.527H453.6C453.6 266.82 453.656 267.072 453.77 267.283C453.881 267.489 454.039 267.666 454.232 267.799C454.432 267.936 454.656 268.037 454.906 268.104C455.156 268.171 455.424 268.197 455.697 268.197C456.092 268.197 456.426 268.143 456.699 268.033C456.972 267.923 457.18 267.768 457.32 267.564C457.46 267.36 457.537 267.121 457.537 266.844ZM462.582 269.117C462.141 269.117 461.74 269.043 461.381 268.895C461.032 268.75 460.718 268.532 460.461 268.256C460.202 267.974 460.003 267.643 459.875 267.283C459.735 266.888 459.665 266.472 459.67 266.053V265.807C459.67 265.291 459.746 264.832 459.898 264.43C460.05 264.028 460.258 263.68 460.52 263.398C460.769 263.125 461.072 262.908 461.41 262.76C461.735 262.617 462.086 262.543 462.441 262.543C462.895 262.543 463.285 262.621 463.613 262.777C463.935 262.925 464.215 263.151 464.428 263.434C464.647 263.728 464.806 264.062 464.896 264.418C464.998 264.793 465.049 265.203 465.049 265.648V266.135H460.314V265.25H463.965V265.168C463.949 264.887 463.89 264.611 463.789 264.348C463.691 264.082 463.535 263.863 463.32 263.691C463.105 263.519 462.812 263.434 462.441 263.434C462.195 263.434 461.969 263.486 461.762 263.592C461.549 263.698 461.366 263.855 461.229 264.049C461.08 264.252 460.965 264.5 460.883 264.793C460.801 265.086 460.76 265.424 460.76 265.807V266.053C460.76 266.354 460.801 266.637 460.883 266.902C460.961 267.154 461.086 267.389 461.252 267.594C461.413 267.791 461.615 267.951 461.844 268.062C462.078 268.176 462.344 268.232 462.641 268.232C463.023 268.232 463.348 268.154 463.613 267.998C463.885 267.837 464.122 267.624 464.311 267.371L464.967 267.893C464.83 268.1 464.656 268.297 464.445 268.484C464.216 268.683 463.952 268.838 463.666 268.941C463.361 269.059 463 269.117 462.582 269.117ZM467.398 263.879V271.438H466.309V262.66H467.305L467.398 263.879ZM471.67 265.777V265.9C471.67 266.361 471.615 266.789 471.506 267.184C471.408 267.55 471.245 267.895 471.025 268.203C470.826 268.485 470.563 268.716 470.258 268.877C469.953 269.037 469.604 269.117 469.209 269.117C468.807 269.117 468.451 269.051 468.143 268.918C467.835 268.785 467.572 268.592 467.357 268.338C467.142 268.084 466.971 267.779 466.842 267.424C466.713 267.069 466.631 266.668 466.584 266.223V265.566C466.631 265.098 466.719 264.678 466.848 264.307C466.977 263.936 467.146 263.619 467.357 263.357C467.565 263.097 467.833 262.89 468.137 262.754C468.441 262.613 468.793 262.543 469.191 262.543C469.558 262.536 469.922 262.616 470.252 262.777C470.561 262.93 470.828 263.155 471.031 263.434C471.242 263.719 471.4 264.061 471.506 264.459C471.618 264.889 471.673 265.332 471.67 265.777ZM470.58 265.9V265.777C470.582 265.477 470.548 265.179 470.48 264.887C470.422 264.624 470.317 264.374 470.17 264.148C470.039 263.939 469.858 263.766 469.643 263.645C469.428 263.52 469.172 263.457 468.875 263.457C468.629 263.451 468.385 263.5 468.16 263.598C467.965 263.688 467.791 263.818 467.65 263.979C467.507 264.139 467.391 264.321 467.305 264.518C467.219 264.718 467.154 264.926 467.111 265.139V266.656C467.188 266.927 467.298 267.187 467.439 267.43C467.58 267.668 467.768 267.861 468.002 268.01C468.236 268.159 468.531 268.227 468.887 268.227C469.18 268.227 469.432 268.166 469.643 268.045C469.857 267.92 470.038 267.745 470.17 267.535C470.316 267.309 470.42 267.059 470.48 266.797C470.548 266.503 470.582 266.202 470.58 265.9ZM516.559 264.465V265.004C516.559 265.645 516.479 266.219 516.318 266.727C516.176 267.2 515.941 267.64 515.627 268.021C515.333 268.372 514.962 268.651 514.543 268.836C514.125 269.023 513.656 269.117 513.137 269.117C512.659 269.122 512.186 269.026 511.748 268.836C511.33 268.648 510.967 268.377 510.658 268.021C510.349 267.665 510.117 267.234 509.949 266.727C509.781 266.22 509.697 265.645 509.697 265.004V264.465C509.697 263.824 509.779 263.252 509.943 262.748C510.093 262.274 510.333 261.834 510.652 261.453C510.957 261.094 511.318 260.82 511.736 260.633C512.154 260.446 512.621 260.352 513.125 260.352C513.645 260.352 514.113 260.445 514.531 260.633C514.951 260.819 515.322 261.1 515.615 261.453C515.92 261.809 516.152 262.24 516.312 262.748C516.472 263.256 516.559 263.824 516.559 264.465ZM515.439 265.004V264.453C515.446 263.999 515.393 263.545 515.281 263.105C515.18 262.715 515.029 262.387 514.83 262.121C514.64 261.862 514.388 261.655 514.098 261.518C513.812 261.381 513.488 261.312 513.125 261.312C512.773 261.312 512.455 261.381 512.17 261.518C511.883 261.658 511.634 261.865 511.443 262.121C511.244 262.387 511.09 262.715 510.98 263.105C510.87 263.495 510.816 263.945 510.816 264.453V265.004C510.816 265.516 510.871 265.969 510.98 266.363C511.089 266.757 511.246 267.084 511.449 267.354C511.652 267.624 511.9 267.82 512.182 267.957C512.464 268.094 512.785 268.162 513.137 268.162C513.474 268.169 513.809 268.098 514.115 267.957C514.4 267.82 514.641 267.619 514.836 267.354C515.031 267.089 515.186 266.754 515.287 266.363C515.388 265.972 515.439 265.516 515.439 265.004ZM520.625 268.227C520.872 268.229 521.117 268.175 521.34 268.068C521.559 267.963 521.738 267.818 521.879 267.635C522.02 267.452 522.1 267.234 522.119 266.996H523.15C523.129 267.375 522.997 267.74 522.77 268.045C522.539 268.365 522.236 268.625 521.861 268.824C521.486 269.023 521.074 269.117 520.625 269.117C520.148 269.117 519.732 269.033 519.377 268.865C519.035 268.706 518.734 268.469 518.498 268.174C518.264 267.881 518.094 267.545 517.977 267.166C517.862 266.772 517.805 266.363 517.807 265.953V265.707C517.807 265.281 517.863 264.879 517.977 264.5C518.091 264.121 518.268 263.779 518.498 263.486C518.728 263.193 519.025 262.963 519.377 262.795C519.729 262.627 520.148 262.543 520.625 262.543C521.121 262.543 521.555 262.645 521.926 262.848C522.297 263.051 522.588 263.32 522.799 263.668C523.01 264.016 523.131 264.402 523.15 264.84H522.119C522.1 264.578 522.025 264.342 521.896 264.131C521.767 263.92 521.6 263.752 521.381 263.627C521.152 263.494 520.89 263.428 520.625 263.434C520.293 263.434 520.014 263.5 519.787 263.633C519.567 263.76 519.383 263.941 519.254 264.16C519.125 264.379 519.031 264.623 518.973 264.893C518.918 265.161 518.89 265.434 518.891 265.707V265.953C518.891 266.23 518.918 266.504 518.973 266.773C519.028 267.042 519.119 267.287 519.248 267.506C519.377 267.725 519.559 267.9 519.781 268.033C520.003 268.166 520.289 268.227 520.625 268.227ZM527.023 262.66V263.492H523.596V262.66H527.023ZM524.756 261.119H525.84V267.43C525.84 267.645 525.873 267.807 525.939 267.916C526.005 268.025 526.092 268.098 526.197 268.133C526.307 268.169 526.422 268.187 526.537 268.186C526.631 268.186 526.725 268.178 526.818 268.162L527.047 268.115L527.053 269C526.967 269.027 526.854 269.053 526.713 269.076C526.548 269.103 526.382 269.117 526.215 269.117C525.949 269.117 525.705 269.064 525.482 268.959C525.259 268.854 525.082 268.678 524.949 268.432C524.816 268.186 524.756 267.846 524.756 267.424V261.119ZM571.553 260.469V269H570.416L566.121 262.42V269H564.99V260.469H566.121L570.434 267.066V260.469H571.553ZM573.105 265.9V265.766C573.105 265.309 573.172 264.885 573.305 264.494C573.438 264.103 573.629 263.758 573.879 263.469C574.128 263.178 574.438 262.946 574.787 262.789C575.163 262.623 575.571 262.539 575.982 262.543C576.428 262.543 576.828 262.625 577.184 262.789C577.536 262.944 577.849 263.176 578.098 263.469C578.352 263.758 578.545 264.1 578.678 264.494C578.814 264.904 578.881 265.334 578.877 265.766V265.9C578.877 266.357 578.811 266.781 578.678 267.172C578.553 267.548 578.356 267.896 578.098 268.197C577.844 268.49 577.545 268.713 577.189 268.877C576.833 269.041 576.439 269.117 575.994 269.117C575.549 269.117 575.148 269.037 574.793 268.877C574.443 268.719 574.131 268.487 573.879 268.197C573.625 267.908 573.438 267.562 573.305 267.172C573.172 266.782 573.105 266.357 573.105 265.9ZM574.189 265.766V265.9C574.188 266.203 574.225 266.504 574.301 266.797C574.375 267.074 574.486 267.32 574.635 267.535C574.783 267.746 574.977 267.921 575.203 268.045C575.43 268.166 575.693 268.227 575.994 268.227C576.295 268.227 576.551 268.166 576.773 268.045C576.998 267.922 577.191 267.747 577.336 267.535C577.489 267.31 577.602 267.06 577.67 266.797C577.75 266.505 577.789 266.203 577.787 265.9V265.766C577.789 265.467 577.75 265.169 577.67 264.881C577.596 264.6 577.482 264.352 577.33 264.137C577.185 263.924 576.992 263.748 576.768 263.621C576.527 263.492 576.256 263.428 575.982 263.434C575.686 263.434 575.424 263.496 575.197 263.621C574.972 263.746 574.779 263.923 574.635 264.137C574.481 264.364 574.368 264.615 574.301 264.881C574.227 265.158 574.189 265.453 574.189 265.766ZM582.07 268.021L583.805 262.66H584.912L582.633 269H581.906L582.07 268.021ZM580.623 262.66L582.41 268.051L582.533 269H581.807L579.51 262.66H580.623ZM625.299 269H623.518L623.529 268.08H625.299C625.908 268.08 626.416 267.953 626.822 267.699C627.23 267.441 627.549 267.065 627.736 266.621C627.939 266.16 628.047 265.613 628.047 264.992V264.471C628.047 263.982 627.988 263.549 627.871 263.17C627.754 262.791 627.582 262.465 627.355 262.203C627.128 261.941 626.852 261.736 626.523 261.6C626.194 261.464 625.826 261.395 625.404 261.395H623.482V260.469H625.404C625.963 260.469 626.473 260.562 626.934 260.75C627.395 260.938 627.791 261.201 628.123 261.553C628.468 261.915 628.732 262.346 628.896 262.818C629.076 263.311 629.166 263.865 629.166 264.482V264.992C629.166 265.609 629.076 266.166 628.896 266.662C628.716 267.158 628.457 267.574 628.117 267.922C627.777 268.27 627.375 268.537 626.898 268.725C626.421 268.913 625.893 269 625.299 269ZM624.121 260.469V269H622.99V260.469H624.121ZM633.332 269.117C632.891 269.117 632.49 269.043 632.131 268.895C631.782 268.75 631.468 268.532 631.211 268.256C630.952 267.974 630.753 267.643 630.625 267.283C630.485 266.888 630.415 266.472 630.42 266.053V265.807C630.42 265.291 630.496 264.832 630.648 264.43C630.8 264.028 631.008 263.68 631.27 263.398C631.519 263.125 631.822 262.908 632.16 262.76C632.485 262.617 632.836 262.543 633.191 262.543C633.645 262.543 634.035 262.621 634.363 262.777C634.685 262.925 634.965 263.151 635.178 263.434C635.397 263.728 635.556 264.062 635.646 264.418C635.748 264.793 635.799 265.203 635.799 265.648V266.135H631.064V265.25H634.715V265.168C634.699 264.887 634.64 264.611 634.539 264.348C634.441 264.082 634.285 263.863 634.07 263.691C633.855 263.519 633.562 263.434 633.191 263.434C632.945 263.434 632.719 263.486 632.512 263.592C632.299 263.698 632.116 263.855 631.979 264.049C631.83 264.252 631.715 264.5 631.633 264.793C631.551 265.086 631.51 265.424 631.51 265.807V266.053C631.51 266.354 631.551 266.637 631.633 266.902C631.711 267.154 631.836 267.389 632.002 267.594C632.163 267.791 632.365 267.951 632.594 268.062C632.828 268.176 633.094 268.232 633.391 268.232C633.773 268.232 634.098 268.154 634.363 267.998C634.635 267.837 634.872 267.624 635.061 267.371L635.717 267.893C635.58 268.1 635.406 268.297 635.195 268.484C634.966 268.683 634.702 268.838 634.416 268.941C634.111 269.059 633.75 269.117 633.332 269.117ZM639.602 268.227C639.859 268.227 640.098 268.174 640.316 268.068C640.534 267.962 640.715 267.818 640.855 267.635C640.995 267.452 641.076 267.234 641.096 266.996H642.127C642.106 267.375 641.973 267.74 641.746 268.045C641.516 268.365 641.213 268.625 640.838 268.824C640.463 269.023 640.051 269.117 639.602 269.117C639.125 269.117 638.709 269.033 638.354 268.865C638.011 268.706 637.711 268.469 637.475 268.174C637.239 267.874 637.062 267.532 636.953 267.166C636.836 266.787 636.783 266.379 636.783 265.953V265.707C636.781 265.299 636.838 264.892 636.953 264.5C637.07 264.117 637.244 263.779 637.475 263.486C637.711 263.191 638.011 262.954 638.354 262.795C638.706 262.627 639.125 262.543 639.602 262.543C640.098 262.543 640.531 262.645 640.902 262.848C641.273 263.051 641.564 263.32 641.775 263.668C641.99 264.022 642.112 264.426 642.127 264.84H641.096C641.076 264.578 641.002 264.342 640.873 264.131C640.744 263.92 640.576 263.752 640.357 263.627C640.138 263.502 639.891 263.434 639.602 263.434C639.27 263.434 638.99 263.5 638.764 263.633C638.544 263.76 638.36 263.941 638.23 264.16C638.098 264.388 638.003 264.635 637.949 264.893C637.894 265.161 637.867 265.434 637.867 265.707V265.953C637.867 266.228 637.895 266.503 637.949 266.773C638 267.031 638.093 267.279 638.225 267.506C638.356 267.723 638.539 267.905 638.758 268.033C638.984 268.162 639.266 268.227 639.602 268.227Z"
											fill="#8D8D8D" />
										<g opacity="0.3">
											<path
												d="M1.5 234.5H646.5M1.5 188.5H646.5M1.5 142.5H646.5M1.5 96.5H646.5M1.5 50.5H646.5M1.5 4.5H646.5"
												stroke="#C3C3C3" stroke-opacity="0.5" stroke-linecap="round" />
										</g>
										<path
											d="M1 234.954C4.307 236.123 9.81899 236.558 15.331 234.954C42.891 226.934 44.594 160.27 70.5 161.774C80.835 162.374 110.439 190.621 124 163.5C135.5 140.5 144 163.5 180.683 135.71C195 93 220.274 50 233.604 50C261.164 50 258.377 108.495 292 110.5C325.623 112.505 333.922 147.238 348.804 145.735C363.686 144.232 362.877 110.998 396.5 112C407.496 112.328 402.689 96 416.5 96C427.5 96 430.223 109.283 432 116.5C440 149 456.398 146.848 467.5 125.5C477.5 106.27 483.846 73.057 493.768 77.066C503.69 81.075 504.413 99.004 521.5 97.5C538.587 95.996 532.831 119.914 539 129C549 143.73 549.543 121 576 121C601.409 121 600.5 189.5 611.724 143.73C614.468 132.54 625.375 106.344 639.5 124C643.5 129 645.5 131.005 647 145.735"
											stroke="#6596EF" stroke-width="1.5" stroke-linecap="round" />
										<path
											d="M6 238C8.20914 238 10 236.209 10 234C10 231.791 8.20914 230 6 230C3.79086 230 2 231.791 2 234C2 236.209 3.79086 238 6 238Z"
											fill="#6596EF" stroke="white" stroke-width="2" />
										<path
											d="M67 167C69.2091 167 71 165.209 71 163C71 160.791 69.2091 159 67 159C64.7909 159 63 160.791 63 163C63 165.209 64.7909 167 67 167Z"
											fill="#6596EF" stroke="white" stroke-width="2" />
										<path
											d="M124 169C126.209 169 128 167.209 128 165C128 162.791 126.209 161 124 161C121.791 161 120 162.791 120 165C120 167.209 121.791 169 124 169Z"
											fill="#6596EF" stroke="white" stroke-width="2" />
										<path
											d="M180 138C182.209 138 184 136.209 184 134C184 131.791 182.209 130 180 130C177.791 130 176 131.791 176 134C176 136.209 177.791 138 180 138Z"
											fill="#6596EF" stroke="white" stroke-width="2" />
										<path
											d="M232 55C234.209 55 236 53.2091 236 51C236 48.7909 234.209 47 232 47C229.791 47 228 48.7909 228 51C228 53.2091 229.791 55 232 55Z"
											fill="#6596EF" stroke="white" stroke-width="2" />
										<path
											d="M294 115C296.209 115 298 113.209 298 111C298 108.791 296.209 107 294 107C291.791 107 290 108.791 290 111C290 113.209 291.791 115 294 115Z"
											fill="#6596EF" stroke="white" stroke-width="2" />
										<path
											d="M349 150C351.209 150 353 148.209 353 146C353 143.791 351.209 142 349 142C346.791 142 345 143.791 345 146C345 148.209 346.791 150 349 150Z"
											fill="#6596EF" stroke="white" stroke-width="2" />
										<path
											d="M404 112C406.209 112 408 110.209 408 108C408 105.791 406.209 104 404 104C401.791 104 400 105.791 400 108C400 110.209 401.791 112 404 112Z"
											fill="#6596EF" stroke="white" stroke-width="2" />
										<path
											d="M462 139C464.209 139 466 137.209 466 135C466 132.791 464.209 131 462 131C459.791 131 458 132.791 458 135C458 137.209 459.791 139 462 139Z"
											fill="#6596EF" stroke="white" stroke-width="2" />
										<path
											d="M518 100C520.209 100 522 98.2091 522 96C522 93.7909 520.209 92 518 92C515.791 92 514 93.7909 514 96C514 98.2091 515.791 100 518 100Z"
											fill="#6596EF" stroke="white" stroke-width="2" />
										<path
											d="M574 125C576.209 125 578 123.209 578 121C578 118.791 576.209 117 574 117C571.791 117 570 118.791 570 121C570 123.209 571.791 125 574 125Z"
											fill="#6596EF" stroke="white" stroke-width="2" />
										<path
											d="M646 147C648.209 147 650 145.209 650 143C650 140.791 648.209 139 646 139C643.791 139 642 140.791 642 143C642 145.209 643.791 147 646 147Z"
											fill="#6596EF" stroke="white" stroke-width="2" />
										<path
											d="M5 188.822C19.501 206.059 39.712 131.5 70 131.5C96.764 131.5 108.641 92.303 124 101C151.704 116.686 162.292 83.299 176 62.5C190.5 40.5 199.861 7.09801 236.289 5.56501C272.083 4.05901 266.966 49.504 294.5 48.5C322.034 47.496 330 74 341.5 74C361.724 74 356.23 43.853 373 42C391.173 39.992 393.327 62.5 409 62.5C426.622 62.5 437.971 27.267 463.5 37C493.788 48.548 489.5 62.5 516 48.5C533.042 39.497 544.911 95.5 567 95.5C602.244 95.5 599.192 125.561 611.857 123.552C622.639 121.843 634 95.5 644.5 77.5"
											stroke="#49C8B3" stroke-width="1.5" stroke-linecap="round" />
										<path
											d="M6 194C8.20914 194 10 192.209 10 190C10 187.791 8.20914 186 6 186C3.79086 186 2 187.791 2 190C2 192.209 3.79086 194 6 194Z"
											fill="#8FDED1" stroke="white" stroke-width="2" />
										<path
											d="M67 136C69.2091 136 71 134.209 71 132C71 129.791 69.2091 128 67 128C64.7909 128 63 129.791 63 132C63 134.209 64.7909 136 67 136Z"
											fill="#8FDED1" stroke="white" stroke-width="2" />
										<path
											d="M124 106C126.209 106 128 104.209 128 102C128 99.7909 126.209 98 124 98C121.791 98 120 99.7909 120 102C120 104.209 121.791 106 124 106Z"
											fill="#8FDED1" stroke="white" stroke-width="2" />
										<path
											d="M180 60C182.209 60 184 58.2091 184 56C184 53.7909 182.209 52 180 52C177.791 52 176 53.7909 176 56C176 58.2091 177.791 60 180 60Z"
											fill="#8FDED1" stroke="white" stroke-width="2" />
										<path
											d="M232 9C234.209 9 236 7.20914 236 5C236 2.79086 234.209 1 232 1C229.791 1 228 2.79086 228 5C228 7.20914 229.791 9 232 9Z"
											fill="#8FDED1" stroke="white" stroke-width="2" />
										<path
											d="M294 54C296.209 54 298 52.2091 298 50C298 47.7909 296.209 46 294 46C291.791 46 290 47.7909 290 50C290 52.2091 291.791 54 294 54Z"
											fill="#49C8B3" stroke="white" stroke-width="2" />
										<path
											d="M349 76C351.209 76 353 74.2091 353 72C353 69.7909 351.209 68 349 68C346.791 68 345 69.7909 345 72C345 74.2091 346.791 76 349 76Z"
											fill="#8FDED1" stroke="white" stroke-width="2" />
										<path
											d="M404 65C406.209 65 408 63.2091 408 61C408 58.7909 406.209 57 404 57C401.791 57 400 58.7909 400 61C400 63.2091 401.791 65 404 65Z"
											fill="#8FDED1" stroke="white" stroke-width="2" />
										<path
											d="M462 40C464.209 40 466 38.2091 466 36C466 33.7909 464.209 32 462 32C459.791 32 458 33.7909 458 36C458 38.2091 459.791 40 462 40Z"
											fill="#8FDED1" stroke="white" stroke-width="2" />
										<path
											d="M518 52C520.209 52 522 50.2091 522 48C522 45.7909 520.209 44 518 44C515.791 44 514 45.7909 514 48C514 50.2091 515.791 52 518 52Z"
											fill="#8FDED1" stroke="white" stroke-width="2" />
										<path
											d="M574 100C576.209 100 578 98.2091 578 96C578 93.7909 576.209 92 574 92C571.791 92 570 93.7909 570 96C570 98.2091 571.791 100 574 100Z"
											fill="#8FDED1" stroke="white" stroke-width="2" />
										<path
											d="M646 81C648.209 81 650 79.2091 650 77C650 74.7909 648.209 73 646 73C643.791 73 642 74.7909 642 77C642 79.2091 643.791 81 646 81Z"
											fill="#8FDED1" stroke="white" stroke-width="2" />
									</svg>