<svg width="194" height="87" viewBox="0 0 194 87" fill="none"
											xmlns="http://www.w3.org/2000/svg">
											<path
												d="M3.80899 81.925V76.891H4.746V81.925C4.746 82.394 4.65001 82.789 4.45801 83.111C4.27054 83.4295 3.99377 83.6861 3.66199 83.849C3.32699 84.015 2.941 84.098 2.505 84.098C2.069 84.098 1.68099 84.023 1.34299 83.873C1.01427 83.7312 0.736594 83.4926 0.546997 83.189C0.354997 82.883 0.259003 82.498 0.259003 82.032H1.20099C1.20099 82.332 1.257 82.577 1.367 82.77C1.477 82.963 1.63099 83.103 1.82599 83.194C2.02099 83.285 2.251 83.331 2.505 83.331C2.73586 83.3349 2.96406 83.2813 3.16901 83.175C3.36872 83.0668 3.53191 82.9018 3.638 82.701C3.752 82.49 3.80899 82.231 3.80899 81.925ZM9.32101 83.097V80.377C9.32585 80.1884 9.2821 80.0018 9.194 79.835C9.113 79.679 8.989 79.558 8.823 79.474C8.63095 79.3835 8.42017 79.34 8.20801 79.347C7.98001 79.347 7.77999 79.386 7.60699 79.464C7.43399 79.542 7.305 79.645 7.207 79.771C7.11596 79.8888 7.06608 80.0332 7.065 80.182H6.16199C6.16199 79.993 6.21099 79.806 6.30899 79.62C6.40699 79.434 6.546 79.267 6.729 79.117C6.912 78.967 7.13501 78.844 7.39301 78.756C7.67288 78.6617 7.96668 78.6153 8.26199 78.619C8.61027 78.612 8.95612 78.6784 9.27701 78.814C9.57401 78.945 9.80501 79.142 9.97101 79.405C10.137 79.668 10.225 79.993 10.225 80.387V82.848C10.225 83.023 10.239 83.211 10.269 83.409C10.299 83.607 10.348 83.779 10.41 83.922V84H9.46799C9.42199 83.896 9.38599 83.757 9.35999 83.585C9.33514 83.4235 9.32213 83.2604 9.32101 83.097ZM9.478 80.797L9.487 81.432H8.57401C8.31701 81.432 8.08799 81.453 7.88599 81.495C7.70743 81.5254 7.53553 81.5866 7.37799 81.676C7.24099 81.757 7.137 81.86 7.065 81.983C6.993 82.106 6.95801 82.245 6.95801 82.408C6.95801 82.571 6.99501 82.726 7.07001 82.862C7.14806 83.0015 7.2652 83.1152 7.40701 83.189C7.55701 83.27 7.74699 83.307 7.96899 83.307C8.24499 83.307 8.48999 83.248 8.70099 83.131C8.91199 83.014 9.08001 82.87 9.20401 82.701C9.32801 82.532 9.399 82.368 9.409 82.208L9.79501 82.643C9.76193 82.8046 9.69884 82.9586 9.60901 83.097C9.50801 83.263 9.37301 83.422 9.20401 83.575C9.02716 83.732 8.82583 83.859 8.608 83.951C8.36378 84.0523 8.10136 84.1023 7.83701 84.098C7.47901 84.098 7.16499 84.028 6.89499 83.888C6.63973 83.7605 6.42376 83.5663 6.26999 83.326C6.12261 83.0869 6.04631 82.8108 6.04999 82.53C6.04999 82.247 6.105 81.998 6.216 81.783C6.32775 81.5654 6.49205 81.3791 6.694 81.241C6.902 81.098 7.15301 80.984 7.44601 80.909C7.73901 80.834 8.06601 80.797 8.42801 80.797H9.478ZM12.549 79.845V84H11.646V78.717H12.5L12.549 79.845ZM12.334 81.158L11.958 81.144C11.961 80.782 12.015 80.449 12.119 80.143C12.2153 79.8497 12.3644 79.5766 12.559 79.337C12.7414 79.1135 12.9713 78.9334 13.232 78.81C13.5051 78.6808 13.8039 78.6155 14.106 78.619C14.345 78.6156 14.583 78.6521 14.81 78.727C15.018 78.795 15.195 78.906 15.342 79.059C15.4999 79.2287 15.6168 79.4322 15.684 79.654C15.763 79.898 15.801 80.19 15.801 80.538V84H14.893V80.528C14.893 80.252 14.852 80.03 14.771 79.864C14.69 79.698 14.57 79.573 14.414 79.498C14.2337 79.4148 14.0365 79.3748 13.838 79.381C13.613 79.381 13.408 79.428 13.223 79.522C13.0392 79.6175 12.8777 79.7507 12.749 79.913C12.619 80.079 12.516 80.27 12.441 80.484C12.369 80.7014 12.3329 80.929 12.334 81.158ZM62.457 77.521L60.104 84H59.142L61.852 76.891H62.472L62.457 77.521ZM64.43 84L62.071 77.521L62.057 76.891H62.677L65.396 84H64.43ZM64.308 81.368V82.14H60.313V81.368H64.308ZM67.115 79.732V86.031H66.207V78.717H67.037L67.115 79.732ZM70.675 81.314V81.417C70.6779 81.7779 70.6318 82.1375 70.538 82.486C70.4565 82.791 70.3211 83.0789 70.138 83.336C69.972 83.571 69.7527 83.7632 69.498 83.897C69.244 84.031 68.953 84.098 68.624 84.098C68.289 84.098 67.993 84.042 67.735 83.932C67.477 83.822 67.26 83.66 67.081 83.448C66.902 83.236 66.759 82.983 66.651 82.687C66.543 82.391 66.476 82.057 66.437 81.686V81.139C66.4689 80.7817 66.5424 80.4293 66.656 80.089C66.764 79.78 66.905 79.516 67.081 79.298C67.2546 79.0815 67.477 78.9092 67.73 78.795C68.0067 78.6732 68.3067 78.6131 68.609 78.619C68.941 78.619 69.236 78.684 69.493 78.814C69.7504 78.9415 69.9734 79.1291 70.143 79.361C70.318 79.599 70.45 79.884 70.538 80.216C70.626 80.548 70.675 80.911 70.675 81.314ZM69.767 81.417V81.314C69.7684 81.0643 69.7405 80.8152 69.684 80.572C69.628 80.338 69.542 80.133 69.425 79.957C69.3139 79.7839 69.163 79.6399 68.985 79.537C68.7897 79.4289 68.5691 79.375 68.346 79.381C68.118 79.381 67.919 79.42 67.75 79.498C67.5879 79.5731 67.4432 79.681 67.325 79.815C67.208 79.946 67.112 80.095 67.037 80.265C66.962 80.435 66.912 80.603 66.876 80.782V82.047C66.941 82.275 67.032 82.49 67.149 82.691C67.2645 82.8874 67.4253 83.0533 67.618 83.175C67.813 83.295 68.059 83.355 68.355 83.355C68.5747 83.3614 68.7921 83.3093 68.985 83.204C69.164 83.1 69.311 82.958 69.425 82.779C69.5447 82.5897 69.6322 82.3819 69.684 82.164C69.74 81.933 69.767 81.681 69.767 81.417ZM72.73 79.547V84H71.827V78.717H72.706L72.73 79.547ZM74.381 78.688L74.376 79.527C74.301 79.511 74.229 79.501 74.161 79.498L73.937 79.488C73.7484 79.4845 73.5609 79.5177 73.385 79.586C73.225 79.651 73.09 79.742 72.979 79.859C72.866 79.9814 72.7768 80.1239 72.716 80.279C72.6516 80.4486 72.6105 80.6263 72.594 80.807L72.34 80.953C72.34 80.634 72.371 80.335 72.433 80.055C72.4908 79.7928 72.5911 79.5418 72.73 79.312C72.8545 79.1034 73.0291 78.9291 73.238 78.805C73.447 78.681 73.694 78.619 73.98 78.619C74.0557 78.6199 74.131 78.6283 74.205 78.644C74.2654 78.6502 74.3247 78.665 74.381 78.688ZM120.457 77.521L118.104 84H117.142L119.852 76.891H120.472L120.457 77.521ZM122.43 84L120.071 77.521L120.057 76.891H120.677L123.396 84H122.43ZM122.308 81.368V82.14H118.313V81.368H122.308ZM127.386 82.779V78.717H128.294V84H127.43L127.386 82.779ZM127.557 81.666L127.933 81.656C127.933 82.008 127.895 82.333 127.82 82.633C127.757 82.9114 127.638 83.1738 127.469 83.404C127.306 83.622 127.093 83.793 126.829 83.917C126.565 84.041 126.245 84.098 125.867 84.098C125.61 84.098 125.374 84.06 125.159 83.985C124.944 83.91 124.765 83.795 124.612 83.639C124.459 83.483 124.34 83.279 124.256 83.028C124.172 82.777 124.134 82.477 124.134 82.125V78.717H125.037V82.135C125.037 82.372 125.063 82.569 125.115 82.726C125.161 82.8626 125.236 82.9875 125.335 83.092C125.429 83.18 125.534 83.242 125.647 83.277C125.764 83.313 125.886 83.3311 126.009 83.331C126.393 83.331 126.697 83.258 126.922 83.111C127.142 82.9668 127.311 82.7568 127.405 82.511C127.509 82.2416 127.561 81.9548 127.557 81.666ZM133.094 78.717H133.914V83.888C133.914 84.353 133.82 84.75 133.631 85.079C133.442 85.408 133.178 85.657 132.84 85.826C132.502 85.995 132.117 86.085 131.678 86.085C131.495 86.085 131.281 86.056 131.033 85.997C130.779 85.9382 130.536 85.8411 130.311 85.709C130.076 85.5754 129.873 85.39 129.72 85.167L130.193 84.63C130.415 84.897 130.646 85.082 130.887 85.187C131.128 85.292 131.372 85.343 131.609 85.343C131.866 85.3494 132.121 85.2942 132.352 85.182C132.56 85.074 132.721 84.915 132.835 84.703C132.949 84.491 133.011 84.238 133.011 83.932V79.879L133.094 78.717ZM129.456 81.417V81.314C129.456 80.911 129.503 80.545 129.598 80.216C129.683 79.9082 129.824 79.6185 130.013 79.361C130.187 79.1301 130.413 78.9429 130.672 78.814C130.942 78.6811 131.24 78.6142 131.541 78.619C131.873 78.619 132.163 78.678 132.41 78.795C132.66 78.908 132.878 79.0808 133.045 79.298C133.221 79.516 133.359 79.78 133.46 80.089C133.561 80.398 133.631 80.748 133.67 81.139V81.588C133.634 81.975 133.564 82.324 133.46 82.633C133.356 82.942 133.221 83.206 133.045 83.424C132.876 83.6393 132.658 83.8116 132.41 83.927C132.16 84.041 131.867 84.098 131.531 84.098C131.233 84.102 130.938 84.0331 130.672 83.897C130.418 83.764 130.2 83.577 130.018 83.336C129.828 83.0804 129.685 82.7924 129.598 82.486C129.503 82.158 129.456 81.801 129.456 81.417ZM130.359 81.314V81.417C130.357 81.6665 130.384 81.9154 130.438 82.159C130.487 82.375 130.571 82.5814 130.687 82.77C130.8 82.945 130.945 83.084 131.121 83.185C131.297 83.286 131.507 83.331 131.751 83.331C132.05 83.331 132.298 83.268 132.493 83.141C132.688 83.014 132.843 82.846 132.957 82.638C133.075 82.4235 133.167 82.1955 133.23 81.959V80.782C133.195 80.603 133.139 80.431 133.064 80.265C132.996 80.1002 132.9 79.9481 132.781 79.815C132.664 79.6795 132.519 79.5712 132.356 79.498C132.187 79.42 131.989 79.381 131.761 79.381C131.513 79.381 131.3 79.433 131.121 79.537C130.942 79.641 130.8 79.778 130.687 79.957C130.574 80.136 130.493 80.338 130.438 80.572C130.383 80.806 130.359 81.051 130.359 81.314ZM179.749 84H178.265L178.274 83.233H179.749C180.257 83.233 180.68 83.128 181.019 82.916C181.358 82.704 181.611 82.402 181.78 82.018C181.949 81.634 182.039 81.178 182.039 80.66V80.226C182.039 79.819 181.99 79.457 181.893 79.142C181.796 78.827 181.652 78.554 181.463 78.336C181.274 78.118 181.043 77.947 180.77 77.833C180.497 77.719 180.188 77.662 179.837 77.662H178.235V76.891H179.837C180.302 76.891 180.727 76.969 181.111 77.125C181.495 77.281 181.826 77.501 182.103 77.794C182.389 78.0972 182.608 78.4564 182.747 78.849C182.903 79.2943 182.979 79.7634 182.972 80.235V80.66C182.972 81.174 182.897 81.638 182.747 82.052C182.609 82.4448 182.388 82.803 182.098 83.102C181.811 83.395 181.465 83.6232 181.082 83.771C180.685 83.928 180.244 84 179.749 84ZM178.768 76.891V84H177.825V76.891H178.768ZM186.443 84.098C186.076 84.098 185.742 84.036 185.442 83.912C185.153 83.7896 184.892 83.6084 184.676 83.38C184.464 83.152 184.301 82.882 184.188 82.569C184.075 82.256 184.017 81.915 184.017 81.544V81.339C184.017 80.909 184.08 80.527 184.207 80.191C184.322 79.8734 184.498 79.5815 184.725 79.332C184.933 79.105 185.185 78.9237 185.467 78.8C185.738 78.6804 186.03 78.6187 186.326 78.619C186.704 78.619 187.029 78.684 187.303 78.814C187.571 78.9377 187.804 79.1256 187.981 79.361C188.157 79.592 188.287 79.866 188.372 80.182C188.457 80.498 188.499 80.836 188.499 81.207V81.612H184.554V80.875H187.596V80.807C187.583 80.5727 187.533 80.3419 187.449 80.123C187.368 79.902 187.238 79.719 187.059 79.576C186.88 79.433 186.635 79.361 186.326 79.361C186.121 79.361 185.932 79.405 185.76 79.493C185.584 79.583 185.431 79.7135 185.315 79.874C185.191 80.043 185.096 80.25 185.027 80.494C184.955 80.7698 184.921 81.054 184.925 81.339V81.544C184.925 81.795 184.959 82.031 185.027 82.252C185.094 82.4611 185.198 82.6563 185.335 82.828C185.472 82.994 185.636 83.124 185.828 83.219C186.036 83.3165 186.263 83.3647 186.492 83.36C186.811 83.36 187.081 83.295 187.303 83.165C187.525 83.035 187.718 82.861 187.884 82.643L188.431 83.077C188.317 83.25 188.172 83.414 187.996 83.57C187.805 83.736 187.585 83.8651 187.347 83.951C187.093 84.049 186.792 84.098 186.443 84.098ZM191.668 83.355C191.883 83.355 192.081 83.312 192.264 83.224C192.44 83.1406 192.594 83.0165 192.713 82.862C192.83 82.7077 192.899 82.5229 192.913 82.33H193.772C193.755 82.6462 193.644 82.9502 193.455 83.204C193.263 83.471 193.011 83.688 192.698 83.854C192.38 84.0195 192.026 84.1033 191.668 84.098C191.31 84.1061 190.955 84.0344 190.628 83.888C190.343 83.7544 190.093 83.5574 189.896 83.312C189.7 83.0612 189.553 82.7764 189.461 82.472C189.365 82.1436 189.317 81.8031 189.319 81.461V81.256C189.317 80.9156 189.365 80.5767 189.461 80.25C189.559 79.931 189.703 79.649 189.896 79.405C190.093 79.1596 190.343 78.9626 190.628 78.829C190.955 78.6826 191.31 78.6109 191.668 78.619C192.081 78.619 192.443 78.704 192.752 78.873C193.052 79.0313 193.303 79.2677 193.479 79.557C193.661 79.8508 193.762 80.1875 193.772 80.533H192.913C192.897 80.315 192.835 80.118 192.728 79.942C192.623 79.7672 192.475 79.6225 192.298 79.522C192.119 79.415 191.909 79.361 191.668 79.361C191.391 79.361 191.159 79.417 190.97 79.527C190.786 79.6325 190.633 79.7841 190.525 79.967C190.415 80.1567 190.336 80.3626 190.291 80.577C190.245 80.799 190.223 81.025 190.223 81.256V81.461C190.223 81.692 190.245 81.92 190.291 82.145C190.333 82.3598 190.411 82.566 190.521 82.755C190.63 82.9363 190.783 83.0872 190.965 83.194C191.154 83.302 191.388 83.355 191.668 83.355Z"
												fill="#8D8D8D" />
											<path opacity="0.3"
												d="M25.443 2.19799C3.836 10.424 8.40302 37.662 8.40302 51.108V78H188V42.642C185.776 34.176 184.971 25.161 174.935 24.991C158.531 24.714 130.588 57.026 117.8 45.074C105.012 33.122 112.689 17.64 100.456 10.668C88.223 3.69599 77.579 29.522 66.898 22.551C44.769 8.10799 38.328 -2.70701 25.443 2.19799Z"
												fill="url(#paint0_linear_0_1)" />
											<path
												d="M8.40302 51C8.40302 37.583 3.836 10.403 25.443 2.19599C38.328 -2.69901 44.769 8.093 66.898 22.505C77.579 29.461 88.224 3.69 100.456 10.647C112.688 17.604 105.011 33.053 117.8 44.979C130.589 56.905 158.531 24.663 174.935 24.939C184.971 25.109 185.776 34.104 188 42.552"
												stroke="#F95252" stroke-width="1.5" stroke-linecap="round" />
											<path
												d="M176 30C178.209 30 180 28.2091 180 26C180 23.7909 178.209 22 176 22C173.791 22 172 23.7909 172 26C172 28.2091 173.791 30 176 30Z"
												fill="#F95252" stroke="white" stroke-width="2" />
											<defs>
												<linearGradient id="paint0_linear_0_1" x1="112.38" y1="-0.684007"
													x2="102.972" y2="68.845" gradientUnits="userSpaceOnUse">
													<stop stop-color="#F95252" />
													<stop offset="1" stop-color="white" stop-opacity="0" />
												</linearGradient>
											</defs>
										</svg>