<svg width="194" height="101" viewBox="0 0 194 101" fill="none"
											xmlns="http://www.w3.org/2000/svg">
											<path opacity="0.3"
												d="M34.095 69C23.444 70.2 12.26 60.5 8 55.5V99H188V1C183.03 6 175.751 17 169.361 21C161.373 26 128.355 17 116.107 29C103.859 41 106.521 48.5 94.805 55.5C83.089 62.5 68.71 51 56.994 55.5C45.278 60 47.408 67.5 34.095 69Z"
												fill="url(#paint0_linear_0_1)" />
											<path
												d="M9 55.817C13.263 60.846 23.389 70.1 34.048 68.893C47.371 67.384 45.24 59.84 56.964 55.314C68.688 50.788 83.078 62.355 94.802 55.314C106.526 48.273 103.862 40.73 116.12 28.66C128.378 16.59 161.419 25.642 169.413 20.613C175.808 16.59 182.204 6.532 187 1"
												stroke="#6596EF" stroke-width="1.5" stroke-linecap="round" />
											<path
												d="M128 27C130.209 27 132 25.2091 132 23C132 20.7909 130.209 19 128 19C125.791 19 124 20.7909 124 23C124 25.2091 125.791 27 128 27Z"
												fill="#6596EF" stroke="white" stroke-width="2" />
											<path
												d="M3.80903 95.925V90.891H4.74603V95.925C4.74603 96.394 4.65003 96.789 4.45803 97.111C4.27057 97.4295 3.99382 97.6861 3.66203 97.849C3.32703 98.015 2.94103 98.098 2.50503 98.098C2.06903 98.098 1.68103 98.023 1.34303 97.873C1.00503 97.723 0.739028 97.495 0.547028 97.189C0.355028 96.883 0.259033 96.498 0.259033 96.032H1.20103C1.20103 96.332 1.25703 96.577 1.36703 96.77C1.47703 96.963 1.63103 97.103 1.82603 97.194C2.02103 97.285 2.25103 97.331 2.50503 97.331C2.73588 97.3349 2.96409 97.2813 3.16903 97.175C3.36874 97.0668 3.53194 96.9018 3.63803 96.701C3.75203 96.49 3.80903 96.231 3.80903 95.925ZM9.32103 97.097V94.377C9.32587 94.1884 9.28214 94.0018 9.19403 93.835C9.11303 93.679 8.98903 93.558 8.82303 93.474C8.63098 93.3835 8.42019 93.34 8.20802 93.347C7.98002 93.347 7.78003 93.386 7.60703 93.464C7.43403 93.542 7.30503 93.645 7.20703 93.771C7.11599 93.8888 7.06611 94.0332 7.06503 94.182H6.16203C6.16203 93.993 6.21103 93.806 6.30903 93.62C6.40703 93.434 6.54603 93.267 6.72903 93.117C6.91203 92.967 7.13503 92.844 7.39303 92.756C7.6729 92.6617 7.96671 92.6153 8.26202 92.619C8.6103 92.612 8.95614 92.6784 9.27702 92.814C9.57402 92.945 9.80502 93.142 9.97102 93.405C10.137 93.668 10.225 93.993 10.225 94.387V96.848C10.225 97.023 10.239 97.211 10.269 97.409C10.299 97.607 10.348 97.779 10.41 97.922V98H9.46803C9.42203 97.896 9.38603 97.757 9.36003 97.585C9.33518 97.4235 9.32215 97.2604 9.32103 97.097ZM9.47803 94.797L9.48703 95.432H8.57404C8.31704 95.432 8.08803 95.453 7.88603 95.495C7.70748 95.5254 7.53557 95.5866 7.37803 95.676C7.24103 95.757 7.13703 95.86 7.06503 95.983C6.99303 96.106 6.95803 96.245 6.95803 96.408C6.95803 96.571 6.99503 96.726 7.07003 96.862C7.14503 96.998 7.25703 97.108 7.40703 97.189C7.55703 97.27 7.74703 97.307 7.96903 97.307C8.24503 97.307 8.49003 97.248 8.70103 97.131C8.91203 97.014 9.08003 96.87 9.20403 96.701C9.32802 96.532 9.39903 96.368 9.40903 96.208L9.79503 96.643C9.76194 96.8046 9.69885 96.9586 9.60902 97.097C9.50802 97.263 9.37302 97.422 9.20403 97.575C9.02717 97.732 8.82586 97.859 8.60803 97.951C8.36381 98.0523 8.10138 98.1023 7.83703 98.098C7.47903 98.098 7.16503 98.028 6.89503 97.888C6.62503 97.748 6.41903 97.561 6.27003 97.326C6.12265 97.0869 6.04635 96.8108 6.05003 96.53C6.05003 96.247 6.10503 95.998 6.21603 95.783C6.32703 95.568 6.48603 95.384 6.69403 95.241C6.90203 95.098 7.15303 94.984 7.44603 94.909C7.73903 94.834 8.06602 94.797 8.42802 94.797H9.47803ZM12.549 93.845V98H11.646V92.717H12.5L12.549 93.845ZM12.334 95.158L11.958 95.144C11.961 94.782 12.015 94.449 12.119 94.143C12.223 93.837 12.37 93.565 12.559 93.337C12.7414 93.1135 12.9713 92.9334 13.232 92.81C13.5051 92.6808 13.804 92.6155 14.106 92.619C14.3451 92.6156 14.583 92.6521 14.81 92.727C15.018 92.795 15.195 92.906 15.342 93.059C15.489 93.212 15.605 93.41 15.684 93.654C15.763 93.898 15.801 94.19 15.801 94.538V98H14.893V94.528C14.893 94.252 14.852 94.03 14.771 93.864C14.69 93.698 14.57 93.573 14.414 93.498C14.2337 93.4148 14.0365 93.3748 13.838 93.381C13.613 93.381 13.408 93.428 13.223 93.522C13.0393 93.6175 12.8777 93.7507 12.749 93.913C12.619 94.079 12.516 94.27 12.441 94.484C12.369 94.7014 12.3329 94.929 12.334 95.158Z"
												fill="#8D8D8D" />
											<path
												d="M62.457 91.521L60.104 98H59.142L61.852 90.891H62.472L62.457 91.521ZM64.43 98L62.071 91.521L62.057 90.891H62.677L65.396 98H64.43ZM64.308 95.368V96.14H60.313V95.368H64.308ZM67.115 93.732V100.031H66.207V92.717H67.037L67.115 93.732ZM70.675 95.314V95.417C70.6779 95.7779 70.6318 96.1375 70.538 96.486C70.4566 96.791 70.3211 97.0789 70.138 97.336C69.972 97.571 69.7527 97.7632 69.498 97.897C69.244 98.031 68.953 98.098 68.624 98.098C68.289 98.098 67.993 98.042 67.735 97.932C67.477 97.822 67.26 97.66 67.081 97.448C66.902 97.236 66.759 96.983 66.651 96.687C66.543 96.391 66.476 96.057 66.437 95.686V95.139C66.4689 94.7817 66.5424 94.4293 66.656 94.089C66.764 93.78 66.905 93.516 67.081 93.298C67.2547 93.0815 67.4771 92.9092 67.73 92.795C68.0068 92.6732 68.3067 92.6131 68.609 92.619C68.941 92.619 69.236 92.684 69.493 92.814C69.7504 92.9415 69.9734 93.1291 70.143 93.361C70.318 93.599 70.45 93.884 70.538 94.216C70.626 94.548 70.675 94.911 70.675 95.314ZM69.767 95.417V95.314C69.7684 95.0643 69.7406 94.8152 69.684 94.572C69.628 94.338 69.542 94.133 69.425 93.957C69.3139 93.7839 69.1631 93.6399 68.985 93.537C68.7898 93.4289 68.5691 93.375 68.346 93.381C68.118 93.381 67.919 93.42 67.75 93.498C67.5879 93.5731 67.4432 93.681 67.325 93.815C67.208 93.946 67.112 94.095 67.037 94.265C66.962 94.435 66.912 94.603 66.876 94.782V96.047C66.941 96.275 67.032 96.49 67.149 96.691C67.2646 96.8874 67.4254 97.0533 67.618 97.175C67.813 97.295 68.059 97.355 68.355 97.355C68.5747 97.3614 68.7921 97.3093 68.985 97.204C69.164 97.1 69.311 96.958 69.425 96.779C69.5447 96.5897 69.6322 96.3819 69.684 96.164C69.74 95.933 69.767 95.681 69.767 95.417ZM72.73 93.547V98H71.827V92.717H72.706L72.73 93.547ZM74.381 92.688L74.376 93.527C74.301 93.511 74.229 93.501 74.161 93.498L73.937 93.488C73.7484 93.4845 73.5609 93.5177 73.385 93.586C73.225 93.651 73.09 93.742 72.979 93.859C72.866 93.9814 72.7768 94.1239 72.716 94.279C72.6516 94.4486 72.6105 94.6263 72.594 94.807L72.34 94.953C72.34 94.634 72.371 94.335 72.433 94.055C72.4908 93.7928 72.5911 93.5418 72.73 93.312C72.8545 93.1034 73.0292 92.9291 73.238 92.805C73.447 92.681 73.694 92.619 73.98 92.619C74.0557 92.6199 74.131 92.6283 74.205 92.644C74.2655 92.6502 74.3247 92.665 74.381 92.688ZM120.457 91.521L118.104 98H117.142L119.852 90.891H120.472L120.457 91.521ZM122.43 98L120.071 91.521L120.057 90.891H120.677L123.396 98H122.43ZM122.308 95.368V96.14H118.313V95.368H122.308ZM127.386 96.779V92.717H128.294V98H127.43L127.386 96.779ZM127.557 95.666L127.933 95.656C127.933 96.008 127.895 96.333 127.82 96.633C127.757 96.9114 127.638 97.1738 127.469 97.404C127.306 97.622 127.093 97.793 126.829 97.917C126.565 98.041 126.245 98.098 125.867 98.098C125.61 98.098 125.374 98.06 125.159 97.985C124.944 97.91 124.765 97.795 124.612 97.639C124.459 97.483 124.34 97.279 124.256 97.028C124.172 96.777 124.134 96.477 124.134 96.125V92.717H125.037V96.135C125.037 96.372 125.063 96.569 125.115 96.726C125.161 96.8626 125.236 96.9875 125.335 97.092C125.429 97.18 125.534 97.242 125.647 97.277C125.764 97.313 125.886 97.3311 126.009 97.331C126.393 97.331 126.697 97.258 126.922 97.111C127.142 96.9668 127.311 96.7568 127.405 96.511C127.509 96.2416 127.561 95.9548 127.557 95.666ZM133.094 92.717H133.914V97.888C133.914 98.353 133.82 98.75 133.631 99.079C133.442 99.408 133.178 99.657 132.84 99.826C132.502 99.995 132.117 100.085 131.678 100.085C131.495 100.085 131.281 100.056 131.033 99.997C130.779 99.9382 130.536 99.8411 130.311 99.709C130.076 99.5754 129.874 99.39 129.72 99.167L130.193 98.63C130.415 98.897 130.646 99.082 130.887 99.187C131.128 99.292 131.372 99.343 131.609 99.343C131.866 99.3494 132.121 99.2942 132.352 99.182C132.56 99.074 132.721 98.915 132.835 98.703C132.949 98.491 133.011 98.238 133.011 97.932V93.879L133.094 92.717ZM129.456 95.417V95.314C129.456 94.911 129.503 94.545 129.598 94.216C129.684 93.9082 129.824 93.6185 130.013 93.361C130.187 93.1301 130.413 92.9429 130.672 92.814C130.942 92.6811 131.24 92.6142 131.541 92.619C131.873 92.619 132.163 92.678 132.41 92.795C132.66 92.908 132.878 93.0808 133.045 93.298C133.221 93.516 133.359 93.78 133.46 94.089C133.561 94.398 133.631 94.748 133.67 95.139V95.588C133.634 95.975 133.564 96.324 133.46 96.633C133.356 96.942 133.221 97.206 133.045 97.424C132.876 97.6393 132.658 97.8116 132.41 97.927C132.16 98.041 131.867 98.098 131.531 98.098C131.233 98.102 130.938 98.0331 130.672 97.897C130.418 97.764 130.2 97.577 130.018 97.336C129.828 97.0804 129.685 96.7924 129.598 96.486C129.503 96.158 129.456 95.801 129.456 95.417ZM130.359 95.314V95.417C130.357 95.6665 130.384 95.9154 130.438 96.159C130.487 96.375 130.571 96.5814 130.687 96.77C130.8 96.945 130.945 97.084 131.121 97.185C131.297 97.286 131.507 97.331 131.751 97.331C132.05 97.331 132.298 97.268 132.493 97.141C132.688 97.014 132.843 96.846 132.957 96.638C133.075 96.4235 133.167 96.1955 133.23 95.959V94.782C133.195 94.603 133.139 94.431 133.064 94.265C132.996 94.1002 132.9 93.9481 132.781 93.815C132.664 93.6795 132.519 93.5712 132.356 93.498C132.187 93.42 131.989 93.381 131.761 93.381C131.513 93.381 131.3 93.433 131.121 93.537C130.942 93.641 130.8 93.778 130.687 93.957C130.574 94.136 130.493 94.338 130.438 94.572C130.383 94.806 130.359 95.051 130.359 95.314Z"
												fill="#8D8D8D" />
											<path
												d="M179.749 98H178.265L178.274 97.233H179.749C180.257 97.233 180.68 97.128 181.019 96.916C181.358 96.704 181.611 96.402 181.78 96.018C181.949 95.634 182.039 95.178 182.039 94.66V94.226C182.039 93.819 181.99 93.457 181.893 93.142C181.796 92.827 181.652 92.554 181.463 92.336C181.274 92.118 181.043 91.947 180.77 91.833C180.497 91.719 180.188 91.662 179.837 91.662H178.235V90.891H179.837C180.302 90.891 180.727 90.969 181.111 91.125C181.495 91.281 181.826 91.501 182.103 91.794C182.38 92.087 182.597 92.435 182.747 92.849C182.897 93.263 182.972 93.721 182.972 94.235V94.66C182.972 95.174 182.897 95.638 182.747 96.052C182.597 96.466 182.381 96.812 182.098 97.102C181.815 97.392 181.479 97.614 181.082 97.771C180.685 97.928 180.244 98 179.749 98ZM178.768 90.891V98H177.825V90.891H178.768ZM186.443 98.098C186.076 98.098 185.742 98.036 185.442 97.912C185.153 97.7896 184.892 97.6084 184.676 97.38C184.464 97.152 184.301 96.882 184.188 96.569C184.075 96.256 184.017 95.915 184.017 95.544V95.339C184.017 94.909 184.08 94.527 184.207 94.191C184.322 93.8734 184.498 93.5815 184.725 93.332C184.933 93.105 185.185 92.9237 185.467 92.8C185.738 92.6804 186.03 92.6187 186.326 92.619C186.704 92.619 187.029 92.684 187.303 92.814C187.571 92.9377 187.804 93.1256 187.981 93.361C188.157 93.592 188.287 93.866 188.372 94.182C188.457 94.498 188.499 94.836 188.499 95.207V95.612H184.554V94.875H187.596V94.807C187.583 94.5727 187.534 94.3419 187.449 94.123C187.368 93.902 187.238 93.719 187.059 93.576C186.88 93.433 186.635 93.361 186.326 93.361C186.121 93.361 185.932 93.405 185.76 93.493C185.588 93.581 185.439 93.705 185.315 93.874C185.191 94.043 185.096 94.25 185.027 94.494C184.955 94.7698 184.921 95.054 184.925 95.339V95.544C184.925 95.795 184.959 96.031 185.027 96.252C185.094 96.4611 185.198 96.6563 185.335 96.828C185.472 96.994 185.636 97.124 185.828 97.219C186.02 97.314 186.245 97.36 186.492 97.36C186.811 97.36 187.081 97.295 187.303 97.165C187.525 97.035 187.718 96.861 187.884 96.643L188.431 97.077C188.317 97.25 188.172 97.414 187.996 97.57C187.805 97.736 187.585 97.8651 187.347 97.951C187.093 98.049 186.792 98.098 186.443 98.098ZM191.668 97.355C191.883 97.355 192.081 97.312 192.264 97.224C192.44 97.1406 192.594 97.0165 192.713 96.862C192.83 96.7077 192.899 96.5229 192.913 96.33H193.772C193.755 96.6462 193.644 96.9502 193.455 97.204C193.263 97.471 193.011 97.688 192.698 97.854C192.385 98.02 192.042 98.098 191.668 98.098C191.31 98.1061 190.955 98.0344 190.628 97.888C190.343 97.7544 190.093 97.5574 189.896 97.312C189.701 97.0612 189.553 96.7764 189.461 96.472C189.365 96.1436 189.318 95.8031 189.319 95.461V95.256C189.317 94.9156 189.365 94.5767 189.461 94.25C189.559 93.931 189.703 93.649 189.896 93.405C190.093 93.1596 190.343 92.9626 190.628 92.829C190.955 92.6826 191.31 92.6109 191.668 92.619C192.081 92.619 192.443 92.704 192.752 92.873C193.061 93.042 193.304 93.267 193.479 93.557C193.661 93.8508 193.762 94.1875 193.772 94.533H192.913C192.897 94.315 192.835 94.118 192.728 93.942C192.623 93.7672 192.475 93.6225 192.298 93.522C192.119 93.415 191.909 93.361 191.668 93.361C191.391 93.361 191.159 93.417 190.97 93.527C190.781 93.637 190.636 93.781 190.525 93.967C190.415 94.1567 190.336 94.3626 190.291 94.577C190.245 94.799 190.223 95.025 190.223 95.256V95.461C190.223 95.692 190.245 95.92 190.291 96.145C190.337 96.37 190.413 96.573 190.521 96.755C190.63 96.9363 190.783 97.0872 190.965 97.194C191.154 97.302 191.388 97.355 191.668 97.355Z"
												fill="#8D8D8D" />
											<defs>
												<linearGradient id="paint0_linear_0_1" x1="31.432" y1="47.5" x2="45.671"
													y2="95.02" gradientUnits="userSpaceOnUse">
													<stop stop-color="#6596EF" stop-opacity="0.59" />
													<stop offset="1" stop-color="white" stop-opacity="0" />
												</linearGradient>
											</defs>
										</svg>