<svg width="28" height="28" viewBox="0 0 28 28" fill="none" xmlns="http://www.w3.org/2000/svg">
							<mask id="mask0_1_81" style="mask-type:luminance" maskUnits="userSpaceOnUse" x="0" y="0"
								width="28" height="28">
								<path d="M0 0H28V28H0V0Z" fill="white" />
							</mask>
							<g mask="url(#mask0_1_81)">
								<path
									d="M24.234 27.998C23.3619 27.9978 22.5171 27.6945 21.844 27.14C21.17 26.585 20.709 25.812 20.539 24.954C20.369 24.096 20.501 23.205 20.912 22.433C21.3217 21.6622 21.9861 21.0575 22.792 20.722C23.5968 20.387 24.4931 20.3428 25.327 20.597C26.1615 20.8519 26.8818 21.3884 27.365 22.115C27.8495 22.843 28.0675 23.7161 27.9818 24.5864C27.8961 25.4566 27.5122 26.2705 26.895 26.89C26.546 27.241 26.131 27.52 25.674 27.71C25.2174 27.9 24.7276 27.9976 24.233 27.997L24.234 27.998ZM3.76699 7.82901C2.89493 7.82882 2.05005 7.52552 1.37699 6.97101C0.702307 6.41517 0.241134 5.64266 0.0719878 4.78501C-0.0980122 3.92601 0.0339869 3.03601 0.444987 2.26401C0.854926 1.49306 1.51977 0.888309 2.32599 0.553013C3.13077 0.217964 4.02714 0.173764 4.86099 0.428013C5.69553 0.682909 6.4158 1.21941 6.89899 1.94601C7.38355 2.67396 7.60147 3.54709 7.51581 4.41736C7.43015 5.28763 7.04618 6.10151 6.42899 6.72101C6.08066 7.07272 5.66598 7.35178 5.20899 7.54201C4.75237 7.73185 4.26249 7.82873 3.76799 7.82701L3.76699 7.82901ZM24.064 7.71801C23.193 7.71701 22.349 7.41301 21.676 6.85701C21.003 6.30101 20.543 5.52801 20.374 4.67001C20.2053 3.81189 20.3377 2.92183 20.749 2.15001C21.1595 1.37964 21.8247 0.775611 22.631 0.441014C23.4361 0.106952 24.3325 0.0638133 25.166 0.319014C26.0002 0.57509 26.7198 1.11265 27.202 1.84001C27.6849 2.56884 27.9018 3.44192 27.816 4.31201C27.7296 5.18185 27.3453 5.99511 26.728 6.61401C26.379 6.96558 25.9636 7.24431 25.506 7.43401C25.0489 7.62338 24.5587 7.71992 24.064 7.71801ZM3.86499 27.997C3.11951 27.9974 2.39083 27.7757 1.77199 27.36C1.15184 26.9439 0.668855 26.3534 0.383988 25.663C0.098988 24.972 0.0239873 24.211 0.169987 23.477C0.315416 22.7437 0.674473 22.0698 1.20199 21.54C1.36413 21.378 1.54239 21.2329 1.73399 21.107C1.7931 21.0643 1.85453 21.0249 1.91799 20.989L2.32499 20.775L2.54499 20.681C2.69299 20.624 2.84399 20.577 2.99799 20.539L3.09399 20.513L3.15399 20.496L3.99199 20.441C4.09699 20.441 4.20999 20.458 4.33199 20.475H4.37999H4.48499H4.51899H4.55699H4.59099H4.77499C5.50532 20.4644 6.22639 20.3098 6.89684 20.0199C7.56729 19.7301 8.17393 19.3108 8.68199 18.786C9.71082 17.7238 10.2777 16.2977 10.259 14.819V14.776V14.733C10.2567 14.692 10.2567 14.651 10.259 14.61C10.259 14.562 10.259 14.514 10.245 14.466V14.379C10.245 14.307 10.231 14.237 10.226 14.165L10.288 13.318C10.2933 13.2977 10.2996 13.2777 10.307 13.258L10.321 13.205C10.3564 13.0415 10.4035 12.8807 10.462 12.724C10.4878 12.6492 10.5182 12.5761 10.553 12.505C10.6181 12.3609 10.6908 12.2203 10.771 12.084L10.884 11.906C11.012 11.714 11.157 11.534 11.318 11.369C11.6645 11.005 12.0803 10.714 12.541 10.513C13.002 10.312 13.497 10.206 13.999 10.2C14.501 10.194 14.999 10.289 15.464 10.48C15.929 10.6705 16.3513 10.952 16.706 11.308C17.0611 11.6648 17.3415 12.0887 17.531 12.555C17.7204 13.022 17.815 13.522 17.8093 14.0258C17.8036 14.5297 17.6978 15.0274 17.498 15.49C17.298 15.952 17.008 16.37 16.645 16.718C16.481 16.879 16.303 17.024 16.113 17.151C16.0541 17.1915 15.9934 17.2292 15.931 17.264C15.7997 17.3443 15.6638 17.4167 15.524 17.481L15.306 17.575C15.1561 17.6296 15.0032 17.6754 14.848 17.712L14.757 17.736L14.697 17.753L13.849 17.813C13.744 17.808 13.639 17.797 13.535 17.782H13.461H13.356H13.299H13.256H13.038C12.3067 17.7913 11.5845 17.9452 10.913 18.235C10.2408 18.5251 9.63245 18.9452 9.12299 19.471C8.61262 19.9977 8.21128 20.6199 7.94199 21.302C7.67204 21.9844 7.53884 22.7132 7.54999 23.447V23.488V23.531C7.5564 23.5717 7.56041 23.6128 7.56199 23.654C7.56199 23.702 7.56199 23.75 7.57599 23.798C7.57813 23.8422 7.5828 23.8863 7.58999 23.93V24.103V24.122L7.52999 24.933C7.52999 24.95 7.49899 25.044 7.49199 25.072C7.45599 25.231 7.40999 25.388 7.35299 25.541C7.32799 25.613 7.29799 25.684 7.26399 25.753L7.04599 26.176L6.92599 26.364C6.79839 26.5517 6.65486 26.728 6.49699 26.891C6.14837 27.2428 5.73333 27.5219 5.27599 27.712C4.81899 27.902 4.32899 27.999 3.83499 27.998L3.86399 27.996L3.86499 27.997ZM14.04 27.998C13.2324 28.0064 12.4437 27.7531 11.792 27.276C11.139 26.799 10.658 26.123 10.418 25.349C10.1784 24.575 10.1938 23.7446 10.462 22.98C10.7291 22.2162 11.2356 21.559 11.906 21.106L12.086 20.995C12.2183 20.9142 12.3552 20.8411 12.496 20.776L12.714 20.682C12.863 20.628 13.015 20.584 13.169 20.55L13.317 20.507L14.17 20.445C14.271 20.445 14.379 20.464 14.491 20.479H14.556H14.666H14.709H14.735H14.958C15.6876 20.4679 16.408 20.313 17.0777 20.0232C17.7474 19.7334 18.3534 19.3143 18.861 18.79C19.888 17.73 20.454 16.304 20.435 14.826V14.65L20.421 14.631V14.487L20.407 14.367C20.407 14.3 20.39 14.235 20.388 14.167L20.445 13.349C20.445 13.327 20.478 13.226 20.486 13.195C20.523 13.038 20.569 12.883 20.625 12.731C20.6521 12.6564 20.6831 12.5833 20.718 12.512C20.7825 12.3702 20.8546 12.232 20.934 12.098L20.951 12.069L21.042 11.922C21.171 11.73 21.317 11.549 21.478 11.383C22.185 10.674 23.144 10.275 24.143 10.275C24.6383 10.2751 25.1287 10.373 25.586 10.5631C26.0434 10.7533 26.4586 11.0319 26.808 11.383C27.5137 12.0946 27.9089 13.0568 27.907 14.059C27.907 15.062 27.512 16.024 26.808 16.735C26.6426 16.8943 26.464 17.0392 26.274 17.168L26.15 17.245L26.083 17.288C25.9555 17.3647 25.8236 17.4338 25.688 17.495L25.465 17.591C25.3146 17.6454 25.1609 17.6905 25.005 17.726L24.909 17.752L24.849 17.769L24.013 17.827C23.891 17.827 23.757 17.805 23.63 17.789C23.5933 17.787 23.5566 17.787 23.52 17.789H23.482H23.41H23.223C22.493 17.799 21.773 17.953 21.103 18.243C20.433 18.533 19.826 18.952 19.318 19.477C18.809 20.0028 18.4084 20.6236 18.139 21.304C17.8692 21.9851 17.7357 22.7125 17.746 23.445V23.488V23.529L17.758 23.659C17.76 23.703 17.758 23.746 17.77 23.789C17.782 23.832 17.77 23.871 17.782 23.914C17.794 23.957 17.796 24.044 17.799 24.106L17.737 24.938L17.701 25.068C17.6647 25.2311 17.6183 25.3917 17.562 25.549C17.538 25.616 17.507 25.684 17.478 25.751L17.466 25.775C17.4032 25.9119 17.3328 26.0451 17.255 26.174L17.14 26.362C17.0109 26.5533 16.865 26.7327 16.704 26.898C16.355 27.249 15.94 27.527 15.483 27.716C15.0262 27.9048 14.5363 28.0007 14.042 27.998H14.04ZM3.86699 17.786C3.12199 17.787 2.39299 17.566 1.77299 17.151C1.15262 16.7353 0.669293 16.1451 0.383988 15.455C0.0979721 14.7639 0.0228162 14.0037 0.167987 13.27C0.312986 12.537 0.670987 11.862 1.19799 11.333C1.36199 11.171 1.54099 11.025 1.73199 10.898L1.91899 10.78C2.04799 10.703 2.18299 10.633 2.32399 10.566L2.54399 10.472C2.69205 10.4185 2.84335 10.3744 2.99699 10.34L3.08999 10.314L3.14299 10.297L3.99599 10.237C4.10599 10.237 4.23599 10.256 4.35299 10.273H4.37899H4.48899H4.52699H4.56299H4.59699H4.78599C5.51499 10.263 6.23499 10.108 6.90499 9.81801C7.57499 9.52801 8.18099 9.10901 8.68999 8.58401C9.71789 7.52209 10.2825 6.09576 10.26 4.61801V4.57701V4.53601C10.252 4.49001 10.247 4.44301 10.246 4.39601V4.28101L10.232 4.16301C10.2221 4.09371 10.2158 4.02396 10.213 3.95401L10.27 3.16001V3.14101V3.12401L10.306 3.00101C10.342 2.83801 10.389 2.67701 10.445 2.52001C10.471 2.44801 10.505 2.37601 10.538 2.30101C10.6019 2.15897 10.6741 2.02073 10.754 1.88701V1.86501L10.857 1.70201C10.9828 1.51241 11.1265 1.33527 11.286 1.17301C11.6324 0.808655 12.0483 0.517272 12.509 0.316014C12.969 0.115014 13.465 0.00901407 13.967 0.00301407C14.469 -0.00298593 14.967 0.0920134 15.432 0.282013C15.8977 0.472389 16.3206 0.754061 16.6758 1.11043C17.0309 1.4668 17.3112 1.89065 17.5 2.35701C17.6895 2.82392 17.7843 3.32385 17.7788 3.82773C17.7733 4.3316 17.6677 4.82935 17.468 5.29201C17.268 5.75401 16.979 6.17201 16.616 6.52101C16.453 6.68209 16.2748 6.82709 16.084 6.95401L15.926 7.05501L15.897 7.07201L15.494 7.28601L15.274 7.38001C15.1236 7.43513 14.97 7.48088 14.814 7.51701C14.7809 7.52393 14.7482 7.53261 14.716 7.54301L14.656 7.56002L13.82 7.61801C13.715 7.61801 13.602 7.59901 13.485 7.58401H13.432H13.324H13.281H13.255H13.03C12.3 7.593 11.579 7.74698 10.909 8.03701C10.2379 8.32666 9.63058 8.74602 9.12199 9.27101C8.61263 9.79672 8.21168 10.4175 7.94199 11.098C7.67199 11.779 7.53799 12.507 7.54899 13.24V13.281V13.322C7.55715 13.3649 7.56183 13.4084 7.56299 13.452V13.584C7.56068 13.6262 7.56541 13.6684 7.57699 13.709C7.58517 13.7714 7.58984 13.8341 7.59099 13.897L7.54799 14.722C7.54799 14.744 7.54799 14.765 7.53099 14.787L7.50899 14.862C7.47301 15.0249 7.42726 15.1856 7.37199 15.343C7.34599 15.415 7.30999 15.487 7.27599 15.564C7.21375 15.7038 7.14432 15.8404 7.06799 15.973L6.95299 16.158C6.82664 16.3502 6.68124 16.5291 6.51899 16.692C6.17099 17.044 5.75599 17.323 5.29999 17.513C4.84375 17.7031 4.35422 17.8003 3.85999 17.799L3.86499 17.789L3.86699 17.786Z"
									fill="#0269F6" />
							</g>
						</svg>