<svg width="202" height="200" viewBox="0 0 202 200" fill="none" xmlns="http://www.w3.org/2000/svg">
<path d="M167.95 158.947C159.61 166.728 149.74 172.685 138.974 176.436C128.208 180.187 116.77 181.652 105.402 180.734C94.034 179.816 82.984 176.538 72.955 171.107C62.926 165.677 54.1402 158.214 47.159 149.196L60.127 139.157C65.712 146.371 72.741 152.342 80.764 156.686C88.787 161.03 97.628 163.653 106.722 164.387C115.816 165.121 124.963 163.95 133.579 160.949C142.195 157.947 150.09 153.182 156.76 146.957L167.95 158.947Z" fill="#0076FE" fill-opacity="0.8"/>
<path d="M45.645 147.177C38.746 137.674 33.968 126.801 31.635 115.293C29.3022 103.785 29.4679 91.9097 32.121 80.471L48.097 84.177C45.974 93.328 45.841 102.828 47.708 112.034C49.575 121.24 53.397 129.94 58.916 137.541L45.645 147.177Z" fill="#0076FE" fill-opacity="0.6"/>
<path d="M32.853 77.559C35.668 67.165 40.504 57.428 47.083 48.903C53.662 40.378 61.855 33.232 71.196 27.873L79.356 42.099C71.8836 46.3855 65.3288 52.102 60.066 58.922C54.8031 65.7422 50.9348 73.5321 48.682 81.847L32.853 77.559Z" fill="#0076FE" fill-opacity="0.3"/>
<path d="M73.798 26.443C84.6436 20.7323 96.6316 17.5257 108.88 17.059L109.504 33.448C99.705 33.821 90.115 36.386 81.438 40.954L73.798 26.443Z" fill="#F95252" fill-opacity="0.5"/>
<path d="M112 17C128.218 17 144.07 21.809 157.56 30.819C171.04 39.83 181.55 52.636 187.76 67.62C193.964 82.604 195.586 99.0913 192.42 114.997C189.26 130.904 181.45 145.515 169.98 156.983L158.39 145.386C167.56 136.212 173.81 124.523 176.34 111.798C178.869 99.073 177.571 85.8839 172.61 73.896C167.64 61.909 159.23 51.664 148.45 44.456C137.66 37.2479 124.976 33.4004 112 33.4V17Z" fill="#0076FE"/>
<path d="M72.383 92.625H76.148C77.003 92.625 77.724 92.755 78.312 93.016C78.906 93.276 79.357 93.661 79.664 94.172C79.977 94.677 80.133 95.299 80.133 96.039C80.1388 96.5342 80.0289 97.0238 79.812 97.469C79.604 97.896 79.302 98.26 78.906 98.562C78.516 98.859 78.047 99.081 77.5 99.227L77.078 99.391H73.539L73.523 98.164H76.195C76.737 98.164 77.188 98.07 77.547 97.883C77.906 97.69 78.177 97.432 78.359 97.109C78.5428 96.7826 78.6373 96.4136 78.633 96.039C78.633 95.602 78.547 95.219 78.375 94.891C78.203 94.563 77.932 94.31 77.562 94.133C77.198 93.951 76.727 93.859 76.148 93.859H73.891V104H72.383V92.625ZM79.031 104L76.266 98.844L77.836 98.836L80.641 103.906V104H79.031ZM85.531 104.156C84.943 104.156 84.409 104.057 83.93 103.859C83.4666 103.663 83.0488 103.373 82.703 103.008C82.365 102.643 82.104 102.211 81.922 101.711C81.74 101.211 81.648 100.664 81.648 100.07V99.742C81.648 99.055 81.75 98.443 81.953 97.906C82.156 97.369 82.432 96.906 82.781 96.531C83.13 96.156 83.526 95.872 83.969 95.68C84.412 95.488 84.87 95.391 85.344 95.391C85.948 95.391 86.469 95.495 86.906 95.703C87.3351 95.8999 87.7084 96.2006 87.992 96.578C88.273 96.948 88.482 97.385 88.617 97.891C88.753 98.391 88.82 98.938 88.82 99.531V100.18H82.508V99H87.375V98.891C87.3542 98.5164 87.2752 98.1473 87.141 97.797C87.01 97.443 86.802 97.151 86.516 96.922C86.23 96.693 85.839 96.578 85.344 96.578C85.0294 96.5746 84.7187 96.647 84.438 96.789C84.161 96.924 83.924 97.128 83.727 97.398C83.53 97.668 83.375 98 83.266 98.391C83.157 98.782 83.102 99.232 83.102 99.742V100.07C83.0991 100.454 83.1544 100.836 83.266 101.203C83.38 101.552 83.544 101.859 83.758 102.125C83.973 102.388 84.2421 102.601 84.547 102.75C84.8791 102.905 85.2423 102.983 85.609 102.977C86.12 102.977 86.552 102.872 86.906 102.664C87.26 102.456 87.57 102.177 87.836 101.828L88.711 102.523C88.5147 102.815 88.281 103.08 88.016 103.312C87.734 103.562 87.388 103.766 86.977 103.922C86.566 104.078 86.089 104.156 85.531 104.156ZM94.047 95.547V96.656H89.477V95.547H94.047ZM91.023 93.492H92.469V101.906C92.469 102.193 92.513 102.409 92.602 102.555C92.691 102.701 92.805 102.797 92.945 102.844C93.0912 102.892 93.2442 102.915 93.398 102.914C93.5236 102.914 93.649 102.903 93.773 102.883L94.078 102.82L94.086 104C93.971 104.036 93.82 104.07 93.633 104.102C93.446 104.134 93.229 104.156 92.969 104.156C92.6316 104.16 92.2977 104.088 91.992 103.945C91.695 103.805 91.458 103.57 91.281 103.242C91.104 102.914 91.023 102.461 91.023 101.898V93.492ZM100.727 102.555V98.203C100.727 97.87 100.659 97.581 100.523 97.336C100.393 97.086 100.195 96.893 99.93 96.758C99.665 96.623 99.336 96.555 98.945 96.555C98.581 96.555 98.26 96.617 97.984 96.742C97.714 96.867 97.5 97.031 97.344 97.234C97.1959 97.4209 97.1159 97.6526 97.117 97.891H95.672C95.672 97.589 95.75 97.289 95.906 96.992C96.0734 96.6813 96.302 96.4078 96.578 96.188C96.875 95.943 97.229 95.75 97.641 95.609C98.053 95.468 98.521 95.391 99.031 95.391C99.646 95.391 100.188 95.495 100.656 95.703C101.114 95.8975 101.501 96.2273 101.766 96.648C102.036 97.065 102.172 97.589 102.172 98.219V102.156C102.172 102.438 102.195 102.737 102.242 103.055C102.289 103.373 102.37 103.646 102.469 103.875V104H100.961C100.888 103.833 100.831 103.612 100.789 103.336C100.747 103.06 100.727 102.794 100.727 102.555ZM100.977 98.875L100.992 99.891H99.531C99.12 99.891 98.753 99.924 98.43 99.992C98.107 100.06 97.836 100.151 97.617 100.281C97.4107 100.399 97.2385 100.569 97.117 100.773C97.003 100.966 96.945 101.193 96.945 101.453C96.945 101.719 97.005 101.961 97.125 102.18C97.245 102.399 97.424 102.573 97.664 102.703C97.904 102.833 98.208 102.891 98.562 102.891C99.005 102.891 99.396 102.797 99.734 102.609C100.049 102.441 100.324 102.207 100.539 101.922C100.737 101.651 100.852 101.388 100.867 101.133L101.484 101.828C101.448 102.047 101.349 102.289 101.188 102.555C101.01 102.84 100.791 103.098 100.539 103.32C100.273 103.56 99.956 103.76 99.586 103.922C99.1949 104.083 98.775 104.163 98.352 104.156C97.779 104.156 97.276 104.044 96.844 103.82C96.4361 103.616 96.0906 103.306 95.844 102.922C95.605 102.547 95.492 102.117 95.492 101.648C95.492 101.195 95.581 100.797 95.758 100.453C95.935 100.109 96.19 99.815 96.523 99.586C96.856 99.357 97.258 99.174 97.727 99.055C98.2407 98.9296 98.7682 98.8692 99.297 98.875H100.977ZM106.016 95.547V104H104.562V95.547H106.016ZM104.453 93.305C104.447 93.0876 104.522 92.8757 104.664 92.711C104.81 92.549 105.023 92.469 105.305 92.469C105.581 92.469 105.792 92.549 105.938 92.711C106.084 92.873 106.164 93.07 106.164 93.305C106.164 93.529 106.089 93.721 105.938 93.883C105.792 94.039 105.581 94.117 105.305 94.117C105.023 94.117 104.81 94.039 104.664 93.883C104.524 93.7234 104.449 93.5172 104.453 93.305ZM109.906 92V104H108.453V92H109.906ZM122.477 101.125C122.477 100.859 122.435 100.625 122.352 100.422C122.269 100.219 122.133 100.026 121.93 99.859C121.727 99.692 121.456 99.534 121.102 99.383C120.669 99.2024 120.225 99.0484 119.773 98.922C119.211 98.755 118.703 98.57 118.25 98.367C117.833 98.1811 117.442 97.9422 117.086 97.656C116.763 97.391 116.516 97.086 116.344 96.742C116.172 96.398 116.086 96.005 116.086 95.562C116.082 95.1378 116.175 94.7184 116.359 94.336C116.542 93.961 116.802 93.635 117.141 93.359C117.48 93.083 117.893 92.859 118.367 92.703C118.841 92.547 119.37 92.469 119.953 92.469C120.807 92.469 121.531 92.633 122.125 92.961C122.719 93.289 123.18 93.708 123.492 94.234C123.8 94.7372 123.962 95.316 123.961 95.906H122.461C122.469 95.5112 122.375 95.121 122.188 94.773C122.005 94.44 121.729 94.18 121.359 93.992C120.989 93.804 120.521 93.703 119.953 93.703C119.417 93.703 118.974 93.784 118.625 93.945C118.276 94.106 118.016 94.326 117.844 94.602C117.672 94.878 117.594 95.193 117.594 95.547C117.594 95.786 117.643 96.005 117.742 96.203C117.841 96.401 118.005 96.576 118.219 96.742C118.474 96.9301 118.753 97.085 119.047 97.203C119.442 97.363 119.846 97.4986 120.258 97.609C120.904 97.792 121.461 97.995 121.93 98.219C122.399 98.443 122.784 98.695 123.086 98.977C123.393 99.253 123.62 99.568 123.766 99.922C123.912 100.276 123.992 100.667 123.992 101.109C123.992 101.573 123.898 101.992 123.711 102.367C123.524 102.742 123.255 103.062 122.906 103.328C122.557 103.594 122.138 103.799 121.648 103.945C121.164 104.086 120.622 104.156 120.023 104.156C119.497 104.156 118.979 104.083 118.469 103.938C117.975 103.797 117.507 103.575 117.086 103.281C116.674 102.99 116.344 102.63 116.094 102.203C115.844 101.776 115.727 101.271 115.727 100.703H117.227C117.227 101.094 117.302 101.43 117.453 101.711C117.602 101.985 117.814 102.22 118.07 102.398C118.336 102.581 118.635 102.716 118.969 102.805C119.314 102.889 119.668 102.931 120.023 102.93C120.549 102.93 120.995 102.857 121.359 102.711C121.723 102.565 122 102.357 122.188 102.086C122.376 101.815 122.477 101.495 122.477 101.125ZM130.68 102.555V98.203C130.68 97.87 130.612 97.581 130.477 97.336C130.343 97.087 130.136 96.8852 129.883 96.758C129.618 96.623 129.289 96.555 128.898 96.555C128.534 96.555 128.214 96.617 127.938 96.742C127.667 96.867 127.453 97.031 127.297 97.234C127.149 97.4209 127.069 97.6526 127.07 97.891H125.625C125.625 97.589 125.703 97.289 125.859 96.992C126.015 96.695 126.24 96.427 126.531 96.188C126.828 95.943 127.182 95.75 127.594 95.609C128.006 95.468 128.474 95.391 128.984 95.391C129.599 95.391 130.141 95.495 130.609 95.703C131.067 95.8975 131.454 96.2273 131.719 96.648C131.99 97.065 132.125 97.589 132.125 98.219V102.156C132.125 102.438 132.148 102.737 132.195 103.055C132.242 103.373 132.323 103.646 132.422 103.875V104H130.914C130.841 103.833 130.784 103.612 130.742 103.336C130.7 103.06 130.68 102.794 130.68 102.555ZM130.93 98.875L130.945 99.891H129.484C129.073 99.891 128.706 99.924 128.383 99.992C128.06 100.06 127.789 100.151 127.57 100.281C127.364 100.399 127.192 100.569 127.07 100.773C126.955 100.97 126.898 101.193 126.898 101.453C126.898 101.719 126.958 101.961 127.078 102.18C127.198 102.399 127.378 102.573 127.617 102.703C127.862 102.828 128.161 102.891 128.516 102.891C128.958 102.891 129.349 102.797 129.688 102.609C130.027 102.421 130.294 102.193 130.492 101.922C130.69 101.651 130.805 101.388 130.82 101.133L131.438 101.828C131.401 102.047 131.302 102.289 131.141 102.555C130.963 102.84 130.744 103.098 130.492 103.32C130.209 103.571 129.887 103.774 129.539 103.922C129.148 104.083 128.728 104.163 128.305 104.156C127.732 104.156 127.229 104.044 126.797 103.82C126.389 103.616 126.044 103.306 125.797 102.922C125.558 102.547 125.445 102.117 125.445 101.648C125.445 101.195 125.534 100.797 125.711 100.453C125.888 100.103 126.152 99.805 126.477 99.586C126.81 99.352 127.211 99.174 127.68 99.055C128.194 98.9296 128.721 98.8692 129.25 98.875H130.93ZM135.969 92V104H134.516V92H135.969ZM141.797 104.156C141.208 104.156 140.674 104.057 140.195 103.859C139.716 103.661 139.312 103.372 138.969 103.008C138.624 102.633 138.358 102.192 138.188 101.711C138.001 101.184 137.908 100.629 137.914 100.07V99.742C137.914 99.055 138.016 98.443 138.219 97.906C138.422 97.369 138.698 96.906 139.047 96.531C139.379 96.1679 139.783 95.8781 140.234 95.68C140.677 95.487 141.135 95.391 141.609 95.391C142.21 95.391 142.73 95.495 143.17 95.703C143.6 95.9004 143.974 96.201 144.26 96.578C144.552 96.9699 144.763 97.4163 144.88 97.891C145.02 98.391 145.09 98.938 145.09 99.531V100.18H138.773V99H143.64V98.891C143.619 98.5169 143.541 98.1481 143.41 97.797C143.28 97.443 143.07 97.151 142.78 96.922C142.49 96.693 142.1 96.578 141.609 96.578C141.294 96.5746 140.984 96.647 140.703 96.789C140.427 96.924 140.19 97.128 139.992 97.398C139.794 97.668 139.641 98 139.531 98.391C139.421 98.782 139.367 99.232 139.367 99.742V100.07C139.365 100.454 139.42 100.836 139.531 101.203C139.646 101.552 139.81 101.859 140.023 102.125C140.238 102.388 140.507 102.601 140.812 102.75C141.125 102.901 141.479 102.977 141.875 102.977C142.39 102.977 142.82 102.872 143.17 102.664C143.53 102.456 143.84 102.177 144.1 101.828L144.98 102.523C144.79 102.799 144.56 103.062 144.28 103.312C144 103.562 143.65 103.766 143.24 103.922C142.84 104.078 142.35 104.156 141.797 104.156ZM151.7 101.758C151.7 101.549 151.65 101.357 151.55 101.18C151.47 100.997 151.28 100.833 151 100.688C150.72 100.536 150.31 100.406 149.75 100.297C149.319 100.209 148.895 100.091 148.48 99.945C148.1 99.81 147.78 99.646 147.52 99.453C147.26 99.26 147.05 99.034 146.91 98.773C146.765 98.4907 146.693 98.1764 146.7 97.859C146.702 97.5316 146.777 97.2087 146.92 96.914C147.075 96.6112 147.289 96.3428 147.55 96.125C147.847 95.8855 148.186 95.7027 148.55 95.586C148.93 95.456 149.36 95.391 149.84 95.391C150.51 95.391 151.09 95.51 151.57 95.75C152.05 95.99 152.42 96.31 152.67 96.711C152.93 97.107 153.05 97.547 153.05 98.031H151.61C151.608 97.789 151.535 97.553 151.4 97.352C151.25 97.119 151.044 96.928 150.8 96.797C150.54 96.651 150.22 96.578 149.84 96.578C149.43 96.578 149.11 96.641 148.86 96.766C148.61 96.885 148.43 97.039 148.32 97.227C148.214 97.4065 148.159 97.6115 148.16 97.82C148.16 97.977 148.18 98.117 148.23 98.242C148.302 98.376 148.405 98.4911 148.53 98.578C148.67 98.677 148.87 98.771 149.12 98.859C149.38 98.948 149.71 99.036 150.1 99.125C150.79 99.281 151.36 99.469 151.81 99.688C152.26 99.907 152.59 100.174 152.81 100.492C153.03 100.81 153.14 101.195 153.14 101.648C153.14 102.018 153.06 102.357 152.91 102.664C152.751 102.978 152.522 103.251 152.24 103.461C151.96 103.68 151.61 103.852 151.21 103.977C150.82 104.096 150.37 104.156 149.88 104.156C149.13 104.156 148.5 104.023 147.98 103.758C147.47 103.492 147.08 103.148 146.81 102.727C146.554 102.328 146.415 101.865 146.41 101.391H147.87C147.89 101.786 148 102.102 148.21 102.336C148.417 102.568 148.683 102.738 148.98 102.828C149.28 102.922 149.58 102.969 149.88 102.969C150.27 102.969 150.6 102.917 150.87 102.812C151.14 102.707 151.34 102.565 151.48 102.383C151.62 102.201 151.7 101.992 151.7 101.758ZM178.67 26.401H179.57C180.01 26.401 180.38 26.328 180.67 26.183C180.96 26.032 181.17 25.829 181.31 25.574C181.46 25.314 181.53 25.023 181.53 24.699C181.53 24.316 181.47 23.995 181.34 23.735C181.217 23.4835 181.018 23.2776 180.77 23.147C180.51 23.015 180.19 22.949 179.8 22.949C179.44 22.949 179.13 23.02 178.85 23.161C178.58 23.298 178.37 23.494 178.22 23.749C178.063 24.0234 177.984 24.3351 177.99 24.651H176.73C176.73 24.146 176.86 23.685 177.11 23.271C177.372 22.851 177.741 22.5085 178.18 22.279C178.65 22.033 179.19 21.91 179.8 21.91C180.4 21.91 180.92 22.017 181.38 22.231C181.818 22.4306 182.185 22.7601 182.43 23.175C182.68 23.59 182.8 24.107 182.8 24.727C182.8 24.977 182.75 25.246 182.63 25.533C182.502 25.8294 182.319 26.0985 182.09 26.326C181.85 26.572 181.53 26.775 181.14 26.935C180.76 27.09 180.29 27.167 179.75 27.167H178.67V26.401ZM178.67 27.44V26.682H179.75C180.38 26.682 180.91 26.757 181.32 26.907C181.74 27.058 182.06 27.258 182.3 27.509C182.531 27.7406 182.702 28.0243 182.8 28.336C182.9 28.632 182.96 28.928 182.96 29.225C182.968 29.6496 182.886 30.0711 182.72 30.462C182.56 30.822 182.34 31.127 182.05 31.378C181.77 31.629 181.44 31.818 181.05 31.945C180.647 32.0764 180.224 32.1413 179.8 32.137C179.37 32.137 178.96 32.075 178.58 31.952C178.2 31.829 177.87 31.651 177.58 31.419C177.28 31.182 177.06 30.893 176.89 30.551C176.73 30.204 176.65 29.81 176.65 29.368H177.91C177.91 29.715 177.99 30.018 178.14 30.277C178.293 30.5385 178.519 30.75 178.79 30.886C179.08 31.027 179.42 31.098 179.8 31.098C180.19 31.098 180.52 31.032 180.8 30.899C181.08 30.766 181.3 30.558 181.45 30.284C181.61 30.011 181.68 29.667 181.68 29.252C181.68 28.837 181.6 28.498 181.42 28.233C181.245 27.9632 180.99 27.7554 180.69 27.639C180.333 27.4996 179.953 27.432 179.57 27.44H178.67ZM186.3 27.263L185.29 27.003L185.79 22.047H190.89V23.216H186.86L186.56 25.923C186.74 25.818 186.97 25.72 187.25 25.629C187.53 25.538 187.85 25.492 188.22 25.492C188.68 25.492 189.09 25.572 189.46 25.731C189.82 25.886 190.13 26.11 190.39 26.401C190.656 26.7086 190.856 27.0667 190.98 27.454C191.12 27.864 191.19 28.322 191.19 28.828C191.19 29.307 191.12 29.746 190.99 30.147C190.87 30.5335 190.672 30.8917 190.41 31.2C190.15 31.496 189.82 31.727 189.42 31.891C189.03 32.055 188.57 32.137 188.03 32.137C187.63 32.137 187.25 32.082 186.89 31.973C186.54 31.859 186.22 31.688 185.94 31.46C185.66 31.232 185.43 30.94 185.25 30.599C185.08 30.252 184.97 29.847 184.92 29.382H186.13C186.18 29.756 186.29 30.07 186.46 30.325C186.613 30.5758 186.836 30.7774 187.1 30.906C187.37 31.034 187.68 31.098 188.03 31.098C188.305 31.1032 188.578 31.0493 188.83 30.94C189.07 30.836 189.26 30.685 189.42 30.489C189.587 30.279 189.71 30.0371 189.78 29.778C189.87 29.5 189.91 29.188 189.91 28.842C189.914 28.5452 189.87 28.2497 189.78 27.967C189.705 27.706 189.571 27.4654 189.39 27.263C189.23 27.062 189.02 26.907 188.77 26.798C188.53 26.684 188.24 26.627 187.92 26.627C187.5 26.627 187.18 26.684 186.96 26.798C186.725 26.9298 186.503 27.0856 186.3 27.263ZM192.46 24.487V23.961C192.46 23.583 192.55 23.239 192.71 22.929C192.87 22.619 193.11 22.37 193.41 22.184C193.72 21.997 194.08 21.903 194.5 21.903C194.93 21.903 195.29 21.997 195.59 22.184C195.9 22.37 196.13 22.619 196.3 22.929C196.46 23.239 196.54 23.583 196.54 23.961V24.487C196.544 24.8411 196.461 25.1907 196.3 25.506C196.14 25.816 195.91 26.064 195.6 26.251C195.3 26.438 194.94 26.531 194.51 26.531C194.09 26.531 193.72 26.438 193.41 26.251C193.11 26.064 192.87 25.816 192.71 25.506C192.55 25.196 192.46 24.856 192.46 24.487ZM193.41 23.961V24.487C193.41 24.697 193.45 24.895 193.53 25.082C193.61 25.269 193.74 25.422 193.9 25.54C194.081 25.659 194.294 25.7188 194.51 25.711C194.76 25.711 194.96 25.654 195.12 25.54C195.279 25.4228 195.404 25.2645 195.48 25.082C195.56 24.895 195.59 24.697 195.59 24.487V23.961C195.59 23.747 195.55 23.546 195.47 23.359C195.39 23.172 195.27 23.015 195.11 22.901C194.931 22.7786 194.717 22.7166 194.5 22.724C194.26 22.724 194.06 22.783 193.89 22.901C193.73 23.015 193.61 23.168 193.53 23.359C193.45 23.5495 193.409 23.7543 193.41 23.961ZM197.31 30.093V29.56C197.31 29.186 197.39 28.844 197.56 28.534C197.72 28.224 197.96 27.976 198.26 27.789C198.57 27.602 198.93 27.509 199.35 27.509C199.78 27.509 200.14 27.602 200.44 27.789C200.74 27.9685 200.985 28.226 201.15 28.534C201.31 28.844 201.39 29.186 201.39 29.56V30.093C201.39 30.466 201.31 30.808 201.15 31.118C200.99 31.428 200.75 31.676 200.45 31.863C200.15 32.05 199.79 32.144 199.36 32.144C198.94 32.144 198.57 32.05 198.27 31.863C197.97 31.6835 197.725 31.426 197.56 31.118C197.39 30.808 197.31 30.466 197.31 30.093ZM198.26 29.56V30.093C198.26 30.302 198.3 30.503 198.38 30.694C198.462 30.8846 198.599 31.0464 198.774 31.1585C198.948 31.2706 199.153 31.3279 199.36 31.323C199.61 31.323 199.81 31.266 199.97 31.152C200.129 31.0348 200.254 30.8765 200.33 30.694C200.411 30.5039 200.451 30.2994 200.45 30.093V29.56C200.452 29.3532 200.411 29.1483 200.33 28.958C200.254 28.7742 200.125 28.6172 199.96 28.507C199.8 28.388 199.6 28.329 199.35 28.329C199.11 28.329 198.9 28.388 198.74 28.507C198.58 28.626 198.46 28.771 198.38 28.958C198.299 29.1483 198.258 29.3532 198.26 29.56ZM199.66 23.462L194.8 31.241L194.09 30.79L198.95 23.011L199.66 23.462Z" fill="#0B0800"/>
<path d="M147.14 72.469H148.26V78.24C148.26 78.881 148.12 79.414 147.83 79.84C147.55 80.266 147.17 80.586 146.7 80.801C146.219 81.0162 145.697 81.124 145.17 81.117C144.63 81.125 144.095 81.0173 143.6 80.801C143.13 80.586 142.76 80.266 142.49 79.84C142.22 79.414 142.09 78.881 142.09 78.24V72.469H143.21V78.24C143.21 78.686 143.29 79.053 143.45 79.342C143.607 79.6236 143.848 79.8489 144.14 79.986C144.43 80.127 144.78 80.197 145.17 80.197C145.56 80.197 145.91 80.127 146.2 79.986C146.494 79.8518 146.736 79.6257 146.89 79.342C147.05 79.053 147.14 78.686 147.14 78.24V72.469ZM154.58 78.844C154.583 78.6639 154.553 78.4848 154.49 78.316C154.43 78.16 154.33 78.02 154.17 77.895C154.03 77.77 153.82 77.65 153.55 77.537C153.29 77.424 152.96 77.309 152.56 77.191C152.13 77.066 151.75 76.928 151.41 76.775C151.098 76.6361 150.805 76.4569 150.54 76.242C150.3 76.043 150.11 75.814 149.98 75.557C149.86 75.299 149.79 75.004 149.79 74.672C149.79 74.34 149.86 74.033 150 73.752C150.13 73.471 150.33 73.227 150.58 73.02C150.855 72.8021 151.166 72.6351 151.5 72.527C151.86 72.41 152.25 72.352 152.69 72.352C153.33 72.352 153.88 72.475 154.32 72.721C154.77 72.963 155.11 73.281 155.35 73.676C155.58 74.066 155.7 74.484 155.7 74.93H154.57C154.57 74.609 154.5 74.326 154.37 74.08C154.226 73.8277 154.01 73.6238 153.75 73.494C153.47 73.35 153.12 73.277 152.69 73.277C152.29 73.277 151.96 73.338 151.7 73.459C151.43 73.58 151.24 73.744 151.11 73.951C150.98 74.158 150.92 74.395 150.92 74.66C150.919 74.8301 150.957 74.9982 151.03 75.152C151.121 75.3099 151.244 75.4477 151.39 75.557C151.55 75.682 151.76 75.797 152.01 75.902C152.27 76.008 152.57 76.109 152.92 76.207C153.4 76.344 153.82 76.496 154.17 76.664C154.53 76.832 154.81 77.021 155.04 77.232C155.261 77.427 155.435 77.6693 155.55 77.941C155.66 78.203 155.72 78.5 155.72 78.832C155.72 79.18 155.65 79.494 155.51 79.775C155.37 80.056 155.17 80.297 154.91 80.496C154.64 80.695 154.33 80.85 153.96 80.959C153.6 81.064 153.19 81.117 152.74 81.117C152.35 81.117 151.96 81.062 151.58 80.953C151.2 80.844 150.85 80.68 150.54 80.461C150.23 80.242 149.98 79.973 149.8 79.652C149.61 79.328 149.52 78.953 149.52 78.527H150.65C150.65 78.82 150.7 79.072 150.82 79.283C150.928 79.4903 151.087 79.6675 151.28 79.799C151.48 79.936 151.7 80.037 151.95 80.104C152.21 80.166 152.47 80.197 152.74 80.197C153.14 80.197 153.47 80.143 153.75 80.033C154.02 79.924 154.23 79.768 154.37 79.564C154.51 79.36 154.58 79.121 154.58 78.844ZM160.32 73.225L157.5 81H156.34L159.59 72.469H160.34L160.32 73.225ZM162.69 81L159.86 73.225L159.84 72.469H160.58L163.85 81H162.69ZM162.54 77.842V78.768H157.75V77.842H162.54ZM109.555 146.469H110.68V152.24C110.68 152.881 110.537 153.414 110.252 153.84C109.967 154.266 109.588 154.586 109.115 154.801C108.634 155.015 108.112 155.122 107.586 155.117C107.046 155.125 106.511 155.017 106.016 154.801C105.551 154.586 105.182 154.266 104.908 153.84C104.634 153.414 104.504 152.881 104.504 152.24V146.469H105.623V152.24C105.623 152.686 105.705 153.053 105.869 153.342C106.033 153.631 106.262 153.846 106.555 153.986C106.848 154.126 107.195 154.197 107.586 154.197C107.977 154.197 108.324 154.127 108.617 153.986C108.91 153.85 109.152 153.624 109.309 153.342C109.473 153.053 109.555 152.686 109.555 152.24V146.469ZM113.586 146.469V155H112.455V146.469H113.586ZM118.736 146.469L115.191 150.447L113.199 152.516L113.012 151.309L114.512 149.656L117.377 146.469H118.736ZM117.646 155L114.488 150.84L115.162 149.943L118.994 155H117.646Z" fill="#8D8D8D"/>
<path d="M102.669 193.401H103.571C104.013 193.401 104.378 193.328 104.665 193.183C104.957 193.032 105.173 192.829 105.314 192.574C105.455 192.319 105.533 192.023 105.533 191.699C105.533 191.316 105.469 190.995 105.342 190.735C105.22 190.482 105.018 190.275 104.768 190.147C104.512 190.015 104.189 189.949 103.797 189.949C103.441 189.949 103.127 190.02 102.854 190.161C102.581 190.302 102.373 190.494 102.218 190.749C102.063 191.004 101.992 191.305 101.992 191.651H100.728C100.723 191.164 100.855 190.686 101.11 190.271C101.366 189.856 101.723 189.525 102.184 189.279C102.645 189.033 103.186 188.91 103.797 188.91C104.398 188.91 104.925 189.017 105.376 189.231C105.815 189.431 106.183 189.76 106.429 190.175C106.679 190.59 106.805 191.107 106.805 191.727C106.805 191.977 106.745 192.246 106.627 192.533C106.509 192.82 106.333 193.08 106.087 193.326C105.841 193.572 105.531 193.775 105.144 193.935C104.757 194.095 104.291 194.167 103.749 194.167H102.669V193.401ZM102.669 194.44V193.682H103.749C104.382 193.682 104.907 193.757 105.321 193.907C105.735 194.057 106.062 194.258 106.299 194.509C106.53 194.742 106.703 195.025 106.805 195.336C106.903 195.622 106.954 195.922 106.955 196.225C106.955 196.689 106.875 197.102 106.716 197.462C106.557 197.822 106.34 198.127 106.053 198.378C105.766 198.629 105.438 198.818 105.055 198.945C104.672 199.072 104.255 199.137 103.804 199.137C103.389 199.14 102.976 199.077 102.58 198.952C102.202 198.829 101.867 198.651 101.575 198.419C101.285 198.184 101.052 197.888 100.892 197.551C100.728 197.204 100.646 196.81 100.646 196.368H101.91C101.91 196.715 101.985 197.018 102.136 197.277C102.291 197.539 102.519 197.75 102.792 197.886C103.075 198.032 103.416 198.098 103.804 198.098C104.192 198.098 104.524 198.032 104.802 197.899C105.079 197.769 105.306 197.553 105.451 197.284C105.606 197.011 105.684 196.667 105.684 196.252C105.684 195.837 105.597 195.498 105.424 195.233C105.247 194.962 104.988 194.755 104.686 194.639C104.371 194.507 104 194.44 103.571 194.44H102.669ZM114.946 193.23V194.748C114.946 195.564 114.873 196.252 114.728 196.812C114.583 197.372 114.372 197.824 114.099 198.166C113.826 198.508 113.495 198.756 113.107 198.911C112.725 199.062 112.292 199.137 111.809 199.137C111.426 199.137 111.073 199.089 110.749 198.993C110.425 198.897 110.134 198.745 109.874 198.535C109.604 198.302 109.381 198.019 109.218 197.701C109.035 197.359 108.896 196.945 108.801 196.457C108.706 195.969 108.657 195.4 108.657 194.748V193.23C108.657 192.415 108.73 191.731 108.876 191.18C109.022 190.629 109.238 190.186 109.512 189.854C109.785 189.516 110.113 189.275 110.496 189.129C110.879 188.983 111.316 188.91 111.795 188.91C112.182 188.91 112.538 188.958 112.861 189.054C113.184 189.15 113.481 189.293 113.736 189.498C114.006 189.719 114.228 189.994 114.386 190.305C114.568 190.637 114.707 191.045 114.803 191.528C114.905 192.089 114.953 192.659 114.946 193.23ZM113.675 194.953V193.019C113.675 192.572 113.647 192.18 113.593 191.843C113.554 191.543 113.478 191.249 113.367 190.968C113.267 190.726 113.139 190.53 112.984 190.38C112.836 190.232 112.656 190.12 112.458 190.052C112.245 189.976 112.021 189.939 111.795 189.942C111.494 189.942 111.228 189.999 110.995 190.113C110.755 190.232 110.551 190.414 110.407 190.64C110.247 190.882 110.134 191.198 110.052 191.59C109.97 191.982 109.929 192.458 109.929 193.019V194.953C109.926 195.349 109.951 195.744 110.004 196.136C110.059 196.478 110.138 196.774 110.243 197.024C110.348 197.274 110.476 197.473 110.626 197.633C110.771 197.788 110.948 197.91 111.146 197.988C111.359 198.063 111.583 198.101 111.809 198.098C112.118 198.098 112.39 198.038 112.622 197.92C112.863 197.793 113.064 197.601 113.203 197.366C113.363 197.111 113.481 196.785 113.559 196.389C113.637 195.993 113.675 195.509 113.675 194.953ZM116.464 191.487V190.961C116.464 190.583 116.546 190.239 116.71 189.929C116.872 189.621 117.116 189.363 117.414 189.184C117.719 188.997 118.082 188.903 118.501 188.903C118.929 188.903 119.294 188.997 119.595 189.184C119.893 189.363 120.137 189.621 120.299 189.929C120.463 190.239 120.545 190.583 120.545 190.961V191.487C120.545 191.856 120.463 192.196 120.299 192.506C120.141 192.814 119.899 193.072 119.602 193.251C119.301 193.438 118.938 193.531 118.515 193.531C118.092 193.531 117.724 193.438 117.414 193.251C117.116 193.071 116.872 192.814 116.71 192.506C116.546 192.196 116.464 191.856 116.464 191.487ZM117.414 190.961V191.487C117.414 191.697 117.453 191.895 117.53 192.082C117.607 192.266 117.735 192.425 117.899 192.54C118.063 192.658 118.269 192.711 118.515 192.711C118.761 192.711 118.964 192.654 119.123 192.54C119.282 192.424 119.406 192.265 119.479 192.082C119.557 191.893 119.596 191.691 119.595 191.487V190.961C119.595 190.747 119.554 190.546 119.472 190.359C119.399 190.174 119.272 190.015 119.109 189.901C118.95 189.783 118.747 189.724 118.501 189.724C118.255 189.724 118.057 189.783 117.893 189.901C117.731 190.017 117.606 190.175 117.53 190.359C117.448 190.55 117.414 190.747 117.414 190.961ZM121.311 197.093V196.56C121.307 196.203 121.391 195.85 121.557 195.534C121.719 195.226 121.963 194.968 122.261 194.789C122.566 194.602 122.928 194.509 123.348 194.509C123.776 194.509 124.141 194.602 124.441 194.789C124.74 194.968 124.983 195.226 125.146 195.534C125.312 195.85 125.396 196.203 125.392 196.56V197.093C125.396 197.45 125.311 197.802 125.146 198.118C124.986 198.428 124.754 198.676 124.448 198.863C124.142 199.05 123.785 199.144 123.361 199.144C122.937 199.144 122.573 199.05 122.268 198.863C121.969 198.683 121.723 198.426 121.557 198.118C121.392 197.802 121.307 197.45 121.311 197.093ZM122.261 196.56V197.093C122.261 197.302 122.299 197.503 122.377 197.694C122.455 197.885 122.582 198.034 122.746 198.152C122.91 198.27 123.115 198.323 123.361 198.323C123.607 198.323 123.81 198.266 123.97 198.152C124.132 198.037 124.257 197.878 124.332 197.694C124.41 197.503 124.449 197.299 124.448 197.093V196.56C124.45 196.353 124.408 196.148 124.325 195.958C124.248 195.771 124.127 195.621 123.963 195.507C123.799 195.393 123.598 195.329 123.348 195.329C123.106 195.329 122.903 195.388 122.739 195.507C122.575 195.626 122.459 195.771 122.377 195.958C122.295 196.145 122.261 196.345 122.261 196.56ZM123.662 190.462L118.802 198.241L118.091 197.79L122.951 190.011L123.662 190.462ZM3.979 104.992V115H2.71503V106.571L0.164978 107.501V106.359L3.78101 104.992H3.979ZM9.29797 110.263L8.28601 110.003L8.78497 105.047H13.892V106.216H9.85797L9.55798 108.923C9.73998 108.818 9.96999 108.72 10.248 108.629C10.526 108.538 10.854 108.492 11.219 108.492C11.679 108.492 12.091 108.572 12.456 108.731C12.813 108.881 13.1311 109.11 13.386 109.401C13.646 109.693 13.844 110.044 13.98 110.454C14.116 110.864 14.186 111.322 14.186 111.828C14.186 112.307 14.119 112.746 13.987 113.147C13.855 113.548 13.666 113.899 13.406 114.2C13.146 114.501 12.818 114.727 12.422 114.891C12.026 115.055 11.567 115.137 11.034 115.137C10.633 115.137 10.253 115.082 9.89301 114.973C9.54359 114.866 9.21844 114.692 8.93597 114.46C8.65397 114.232 8.43001 113.94 8.25201 113.599C8.07901 113.252 7.96901 112.847 7.92401 112.382H9.12701C9.18201 112.756 9.29102 113.07 9.45502 113.325C9.61902 113.58 9.83302 113.774 10.098 113.906C10.363 114.038 10.679 114.098 11.034 114.098C11.335 114.098 11.602 114.045 11.834 113.94C12.0628 113.838 12.2643 113.684 12.422 113.489C12.581 113.293 12.702 113.056 12.784 112.778C12.866 112.5 12.914 112.188 12.914 111.842C12.914 111.527 12.871 111.236 12.784 110.967C12.7036 110.708 12.5713 110.469 12.395 110.263C12.226 110.062 12.019 109.907 11.772 109.798C11.525 109.689 11.244 109.627 10.925 109.627C10.501 109.627 10.18 109.684 9.961 109.798C9.72365 109.928 9.50129 110.084 9.29797 110.263ZM15.464 107.487V106.961C15.464 106.583 15.546 106.239 15.71 105.929C15.872 105.621 16.1155 105.363 16.414 105.184C16.719 104.997 17.082 104.903 17.501 104.903C17.929 104.903 18.294 104.997 18.595 105.184C18.8935 105.363 19.137 105.621 19.299 105.929C19.463 106.239 19.545 106.583 19.545 106.961V107.487C19.545 107.856 19.463 108.196 19.299 108.506C19.1407 108.814 18.8992 109.072 18.602 109.251C18.301 109.438 17.938 109.531 17.515 109.531C17.092 109.531 16.724 109.438 16.414 109.251C16.1158 109.071 15.8724 108.814 15.71 108.506C15.546 108.196 15.464 107.856 15.464 107.487ZM16.414 106.961V107.487C16.414 107.697 16.453 107.895 16.53 108.082C16.6074 108.266 16.7352 108.425 16.899 108.54C17.063 108.658 17.269 108.711 17.515 108.711C17.761 108.711 17.964 108.654 18.123 108.54C18.2823 108.424 18.4057 108.265 18.479 108.082C18.557 107.893 18.5964 107.691 18.595 107.487V106.961C18.595 106.747 18.554 106.546 18.472 106.359C18.3988 106.174 18.2725 106.015 18.109 105.901C17.95 105.783 17.747 105.724 17.501 105.724C17.255 105.724 17.057 105.783 16.893 105.901C16.7315 106.017 16.6057 106.175 16.53 106.359C16.448 106.55 16.414 106.747 16.414 106.961ZM20.311 113.093V112.56C20.3069 112.203 20.3915 111.85 20.557 111.534C20.719 111.226 20.9625 110.968 21.261 110.789C21.566 110.602 21.928 110.509 22.348 110.509C22.776 110.509 23.141 110.602 23.441 110.789C23.7395 110.968 23.9833 111.226 24.146 111.534C24.3115 111.85 24.3961 112.203 24.392 112.56V113.093C24.3959 113.45 24.3114 113.802 24.146 114.118C23.986 114.428 23.754 114.676 23.448 114.863C23.142 115.05 22.785 115.144 22.361 115.144C21.937 115.144 21.573 115.05 21.268 114.863C20.9685 114.683 20.723 114.426 20.557 114.118C20.3916 113.802 20.3071 113.45 20.311 113.093ZM21.261 112.56V113.093C21.261 113.302 21.299 113.503 21.377 113.694C21.455 113.885 21.582 114.034 21.746 114.152C21.91 114.27 22.115 114.323 22.361 114.323C22.607 114.323 22.81 114.266 22.97 114.152C23.1315 114.037 23.257 113.878 23.332 113.694C23.4099 113.503 23.4494 113.299 23.448 113.093V112.56C23.4496 112.353 23.4077 112.148 23.325 111.958C23.248 111.771 23.127 111.621 22.963 111.507C22.799 111.393 22.598 111.329 22.348 111.329C22.106 111.329 21.903 111.388 21.739 111.507C21.575 111.626 21.459 111.771 21.377 111.958C21.295 112.145 21.261 112.345 21.261 112.56ZM22.662 106.462L17.802 114.241L17.091 113.79L21.951 106.011L22.662 106.462ZM15.979 36.992V47H14.715V38.571L12.165 39.501V38.359L15.781 36.992H15.979ZM21.298 42.263L20.286 42.003L20.785 37.047H25.892V38.216H21.858L21.558 40.923C21.74 40.818 21.97 40.72 22.248 40.629C22.526 40.538 22.854 40.492 23.219 40.492C23.679 40.492 24.091 40.572 24.456 40.731C24.813 40.8806 25.1311 41.1097 25.386 41.401C25.646 41.693 25.844 42.044 25.98 42.454C26.116 42.864 26.186 43.322 26.186 43.828C26.186 44.307 26.119 44.746 25.987 45.147C25.855 45.548 25.666 45.899 25.406 46.2C25.146 46.501 24.818 46.727 24.422 46.891C24.026 47.055 23.567 47.137 23.034 47.137C22.633 47.137 22.253 47.082 21.893 46.973C21.5436 46.8661 21.2184 46.6918 20.936 46.46C20.654 46.232 20.43 45.94 20.252 45.599C20.079 45.252 19.969 44.847 19.924 44.382H21.127C21.182 44.756 21.291 45.07 21.455 45.325C21.619 45.58 21.833 45.774 22.098 45.906C22.363 46.038 22.679 46.098 23.034 46.098C23.335 46.098 23.602 46.045 23.834 45.94C24.0628 45.8381 24.2643 45.6836 24.422 45.489C24.581 45.293 24.702 45.056 24.784 44.778C24.866 44.5 24.914 44.188 24.914 43.842C24.914 43.527 24.871 43.236 24.784 42.967C24.7036 42.7083 24.5713 42.4687 24.395 42.263C24.226 42.062 24.019 41.907 23.772 41.798C23.525 41.689 23.244 41.627 22.925 41.627C22.501 41.627 22.18 41.684 21.961 41.798C21.7237 41.9282 21.5013 42.0842 21.298 42.263ZM27.464 39.487V38.961C27.464 38.583 27.546 38.239 27.71 37.929C27.872 37.6209 28.1155 37.3632 28.414 37.184C28.719 36.997 29.082 36.903 29.501 36.903C29.929 36.903 30.294 36.997 30.595 37.184C30.8935 37.3632 31.137 37.6209 31.299 37.929C31.463 38.239 31.545 38.583 31.545 38.961V39.487C31.545 39.856 31.463 40.196 31.299 40.506C31.1407 40.8144 30.8992 41.0725 30.602 41.251C30.301 41.438 29.938 41.531 29.515 41.531C29.092 41.531 28.724 41.438 28.414 41.251C28.1158 41.0714 27.8724 40.8138 27.71 40.506C27.546 40.196 27.464 39.856 27.464 39.487ZM28.414 38.961V39.487C28.414 39.697 28.453 39.895 28.53 40.082C28.6074 40.2664 28.7352 40.4252 28.899 40.54C29.063 40.658 29.269 40.711 29.515 40.711C29.761 40.711 29.964 40.654 30.123 40.54C30.2823 40.4238 30.4057 40.265 30.479 40.082C30.557 39.8934 30.5964 39.6911 30.595 39.487V38.961C30.595 38.747 30.554 38.546 30.472 38.359C30.3988 38.1739 30.2725 38.0146 30.109 37.901C29.95 37.783 29.747 37.724 29.501 37.724C29.255 37.724 29.057 37.783 28.893 37.901C28.7315 38.0166 28.6057 38.1753 28.53 38.359C28.448 38.55 28.414 38.747 28.414 38.961ZM32.311 45.093V44.56C32.3069 44.2029 32.3915 43.8504 32.557 43.534C32.719 43.2259 32.9625 42.9682 33.261 42.789C33.566 42.602 33.928 42.509 34.348 42.509C34.776 42.509 35.141 42.602 35.441 42.789C35.7395 42.9684 35.9833 43.226 36.146 43.534C36.3115 43.8504 36.3961 44.2029 36.392 44.56V45.093C36.3959 45.4498 36.3114 45.8019 36.146 46.118C35.986 46.428 35.754 46.676 35.448 46.863C35.142 47.05 34.785 47.144 34.361 47.144C33.937 47.144 33.573 47.05 33.268 46.863C32.9685 46.6828 32.723 46.4255 32.557 46.118C32.3916 45.8019 32.3071 45.4498 32.311 45.093ZM33.261 44.56V45.093C33.261 45.302 33.299 45.503 33.377 45.694C33.455 45.885 33.582 46.034 33.746 46.152C33.91 46.27 34.115 46.323 34.361 46.323C34.607 46.323 34.81 46.266 34.97 46.152C35.1315 46.0366 35.257 45.8778 35.332 45.694C35.4099 45.5033 35.4494 45.299 35.448 45.093V44.56C35.4496 44.3529 35.4077 44.1479 35.325 43.958C35.248 43.771 35.127 43.621 34.963 43.507C34.799 43.393 34.598 43.329 34.348 43.329C34.106 43.329 33.903 43.388 33.739 43.507C33.575 43.626 33.459 43.771 33.377 43.958C33.295 44.145 33.261 44.345 33.261 44.56ZM34.662 38.462L29.802 46.241L29.091 45.79L33.951 38.011L34.662 38.462ZM77.298 6.263L76.286 6.00299L76.785 1.047H81.892V2.216H77.858L77.558 4.92297C77.74 4.81797 77.97 4.72003 78.248 4.62903C78.526 4.53803 78.854 4.492 79.219 4.492C79.679 4.492 80.091 4.57202 80.456 4.73102C80.813 4.88057 81.1311 5.10973 81.386 5.401C81.646 5.693 81.844 6.04398 81.98 6.45398C82.116 6.86398 82.186 7.322 82.186 7.828C82.186 8.307 82.119 8.74597 81.987 9.14697C81.855 9.54797 81.666 9.89901 81.406 10.2C81.146 10.501 80.818 10.727 80.422 10.891C80.026 11.055 79.567 11.137 79.034 11.137C78.633 11.137 78.253 11.082 77.893 10.973C77.5436 10.8661 77.2184 10.6918 76.936 10.46C76.654 10.232 76.43 9.94 76.252 9.599C76.079 9.252 75.969 8.84702 75.924 8.38202H77.127C77.182 8.75602 77.291 9.07001 77.455 9.32501C77.619 9.58001 77.833 9.77401 78.098 9.90601C78.363 10.038 78.679 10.098 79.034 10.098C79.335 10.098 79.602 10.045 79.834 9.94C80.0628 9.83808 80.2643 9.68356 80.422 9.48901C80.581 9.29301 80.702 9.05602 80.784 8.77802C80.866 8.50002 80.914 8.18798 80.914 7.84198C80.914 7.52698 80.871 7.23598 80.784 6.96698C80.7036 6.70828 80.5713 6.46874 80.395 6.263C80.226 6.062 80.019 5.90697 79.772 5.79797C79.525 5.68897 79.244 5.62701 78.925 5.62701C78.501 5.62701 78.18 5.68397 77.961 5.79797C77.7237 5.92825 77.5013 6.08421 77.298 6.263ZM83.464 3.487V2.961C83.464 2.583 83.546 2.23902 83.71 1.92902C83.872 1.62088 84.1155 1.36317 84.414 1.18402C84.719 0.997021 85.082 0.903015 85.501 0.903015C85.929 0.903015 86.294 0.997021 86.595 1.18402C86.8935 1.36317 87.137 1.62088 87.299 1.92902C87.463 2.23902 87.545 2.583 87.545 2.961V3.487C87.545 3.856 87.463 4.19598 87.299 4.50598C87.1407 4.81442 86.8992 5.07246 86.602 5.25098C86.301 5.43798 85.938 5.53101 85.515 5.53101C85.092 5.53101 84.724 5.43798 84.414 5.25098C84.1158 5.07143 83.8724 4.81382 83.71 4.50598C83.546 4.19598 83.464 3.856 83.464 3.487ZM84.414 2.961V3.487C84.414 3.697 84.453 3.89497 84.53 4.08197C84.6074 4.26639 84.7352 4.42517 84.899 4.53998C85.063 4.65798 85.269 4.711 85.515 4.711C85.761 4.711 85.964 4.65398 86.123 4.53998C86.2823 4.42377 86.4057 4.26504 86.479 4.08197C86.557 3.89336 86.5964 3.69108 86.595 3.487V2.961C86.595 2.747 86.554 2.54601 86.472 2.35901C86.3988 2.17391 86.2725 2.01456 86.109 1.901C85.95 1.783 85.747 1.724 85.501 1.724C85.255 1.724 85.057 1.783 84.893 1.901C84.7315 2.01664 84.6057 2.17534 84.53 2.35901C84.448 2.55001 84.414 2.747 84.414 2.961ZM88.311 9.09302V8.56C88.3069 8.20292 88.3915 7.8504 88.557 7.534C88.719 7.22586 88.9625 6.96815 89.261 6.789C89.566 6.602 89.928 6.50897 90.348 6.50897C90.776 6.50897 91.141 6.602 91.441 6.789C91.7395 6.96841 91.9833 7.22603 92.146 7.534C92.3115 7.8504 92.3961 8.20292 92.392 8.56V9.09302C92.3959 9.44976 92.3114 9.80187 92.146 10.118C91.986 10.428 91.754 10.676 91.448 10.863C91.142 11.05 90.785 11.144 90.361 11.144C89.937 11.144 89.573 11.05 89.268 10.863C88.9685 10.6828 88.723 10.4255 88.557 10.118C88.3916 9.80187 88.3071 9.44976 88.311 9.09302ZM89.261 8.56V9.09302C89.261 9.30202 89.299 9.50297 89.377 9.69397C89.455 9.88497 89.582 10.034 89.746 10.152C89.91 10.27 90.115 10.323 90.361 10.323C90.607 10.323 90.81 10.266 90.97 10.152C91.1315 10.0366 91.257 9.87779 91.332 9.69397C91.4099 9.50326 91.4494 9.29905 91.448 9.09302V8.56C91.4496 8.35294 91.4077 8.14786 91.325 7.95801C91.248 7.77101 91.127 7.62102 90.963 7.50702C90.799 7.39302 90.598 7.32898 90.348 7.32898C90.106 7.32898 89.903 7.38802 89.739 7.50702C89.575 7.62602 89.459 7.77101 89.377 7.95801C89.295 8.14501 89.261 8.345 89.261 8.56ZM90.662 2.46198L85.802 10.241L85.091 9.78998L89.951 2.01099L90.662 2.46198Z" fill="#0B0800"/>
</svg>
