<svg width="470" height="276" viewBox="0 0 470 276" fill="none" xmlns="http://www.w3.org/2000/svg">
<g clip-path="url(#clip0_2661_79824)">
<path d="M91.29 46.3627L104.222 33.3494C122.263 15.1958 151.513 15.1958 169.553 33.3494L237.57 101.792L191.972 147.675L91.29 46.3627Z" fill="white"/>
<path d="M222.063 177.708L268.078 131.405L364.634 228.566L351.285 241.998C333.244 260.152 303.994 260.152 285.954 241.998L222.063 177.708Z" fill="white"/>
<path d="M169.842 242.811C151.802 260.965 122.552 260.965 104.511 242.811L91.3544 229.572L206.834 113.369L252.657 159.479L169.842 242.811Z" fill="white"/>
<path d="M252.436 159.254L206.838 113.37L286.682 33.0268C304.723 14.8732 333.972 14.8732 352.013 33.0268L364.945 46.0401L252.436 159.254Z" fill="white"/>
<path d="M273.521 45.8831L286.453 32.8697C304.493 14.7161 333.743 14.7161 351.784 32.8697L422.734 104.265C440.775 122.418 440.775 151.851 422.734 170.005L409.802 183.018L273.521 45.8831Z" fill="white"/>
<path d="M351.251 242.045C333.211 260.199 303.961 260.199 285.921 242.045L272.988 229.032L409.781 91.3819L422.714 104.395C440.754 122.549 440.754 151.982 422.714 170.135L351.251 242.045Z" fill="white"/>
<path d="M32.6654 171.22C14.6248 153.066 14.6248 123.633 32.6654 105.48L45.5978 92.4662L182.391 230.116L169.459 243.129C151.418 261.283 122.168 261.283 104.128 243.129L32.6654 171.22Z" fill="white"/>
<path d="M45.5947 184.072L32.6624 171.059C14.6217 152.905 14.6218 123.472 32.6624 105.319L104.125 33.4089C122.165 15.2553 151.415 15.2553 169.456 33.4089L182.388 46.4222L45.5947 184.072Z" fill="white"/>
</g>
<defs>
<clipPath id="clip0_2661_79824">
<rect width="469.2" height="276" fill="white"/>
</clipPath>
</defs>
</svg>
