<svg width="251" height="250" viewBox="0 0 251 250" fill="none" xmlns="http://www.w3.org/2000/svg">
<path d="M22.8871 178.094C22.745 176.662 22.1354 175.549 21.0582 174.756C19.9811 173.963 18.5192 173.567 16.6726 173.567C15.4179 173.567 14.3584 173.744 13.4943 174.099C12.6302 174.443 11.9673 174.922 11.5057 175.538C11.0559 176.153 10.831 176.852 10.831 177.633C10.8073 178.284 10.9434 178.852 11.2393 179.337C11.5471 179.823 11.9673 180.243 12.5 180.598C13.0327 180.941 13.6482 181.243 14.3466 181.504C15.045 181.752 15.7907 181.965 16.5838 182.143L19.8509 182.924C21.437 183.279 22.893 183.753 24.2188 184.344C25.5445 184.936 26.6927 185.664 27.6634 186.528C28.634 187.393 29.3857 188.411 29.9183 189.582C30.4628 190.754 30.741 192.098 30.7528 193.613C30.741 195.838 30.1728 197.768 29.0483 199.401C27.9356 201.023 26.3258 202.284 24.2188 203.183C22.1236 204.071 19.5964 204.515 16.6371 204.515C13.7015 204.515 11.1446 204.065 8.96662 203.165C6.80043 202.266 5.10772 200.934 3.88849 199.17C2.68111 197.395 2.04782 195.199 1.98864 192.583H9.42827C9.51113 193.802 9.86032 194.82 10.4759 195.637C11.1032 196.442 11.9377 197.052 12.9794 197.466C14.0329 197.868 15.2225 198.07 16.5483 198.07C17.8504 198.07 18.9808 197.88 19.9396 197.501C20.9103 197.123 21.6619 196.596 22.1946 195.921C22.7273 195.246 22.9936 194.471 22.9936 193.595C22.9936 192.778 22.7509 192.092 22.2656 191.536C21.7921 190.979 21.0938 190.506 20.1705 190.115C19.259 189.724 18.1404 189.369 16.8146 189.05L12.8551 188.055C9.7893 187.31 7.36861 186.144 5.59304 184.558C3.81747 182.971 2.93561 180.835 2.94744 178.148C2.93561 175.946 3.52154 174.022 4.70526 172.377C5.90081 170.732 7.54025 169.447 9.62358 168.524C11.7069 167.601 14.0743 167.139 16.7259 167.139C19.4247 167.139 21.7803 167.601 23.7926 168.524C25.8168 169.447 27.3911 170.732 28.5156 172.377C29.6402 174.022 30.2202 175.928 30.2557 178.094H22.8871ZM48.2111 204.533C45.4057 204.533 42.9909 203.964 40.9668 202.828C38.9545 201.68 37.4038 200.058 36.3148 197.963C35.2258 195.856 34.6813 193.364 34.6813 190.488C34.6813 187.683 35.2258 185.22 36.3148 183.102C37.4038 180.983 38.9367 179.331 40.9135 178.148C42.9022 176.964 45.2341 176.372 47.9093 176.372C49.7085 176.372 51.3835 176.662 52.9341 177.242C54.4966 177.81 55.8579 178.669 57.0179 179.817C58.1898 180.965 59.1013 182.409 59.7523 184.149C60.4034 185.877 60.7289 187.902 60.7289 190.222V192.299H37.6998V187.612H53.6088C53.6088 186.522 53.3721 185.558 52.8986 184.717C52.4251 183.877 51.7682 183.22 50.9277 182.746C50.0991 182.261 49.1344 182.018 48.0336 182.018C46.8854 182.018 45.8674 182.285 44.9796 182.817C44.1036 183.338 43.4171 184.043 42.9199 184.93C42.4228 185.806 42.1683 186.783 42.1564 187.86V192.317C42.1564 193.666 42.405 194.832 42.9022 195.815C43.4112 196.797 44.1273 197.555 45.0506 198.087C45.9739 198.62 47.0688 198.886 48.3354 198.886C49.1758 198.886 49.9453 198.768 50.6436 198.531C51.342 198.295 51.9398 197.939 52.437 197.466C52.9341 196.992 53.3129 196.412 53.5733 195.726L60.5691 196.188C60.214 197.868 59.486 199.336 58.3851 200.591C57.2961 201.834 55.8875 202.804 54.1593 203.503C52.4429 204.189 50.4602 204.533 48.2111 204.533ZM73.2289 188.233V204H65.665V176.727H72.8738V181.539H73.1934C73.7971 179.953 74.8091 178.698 76.2296 177.775C77.65 176.84 79.3723 176.372 81.3965 176.372C83.2904 176.372 84.9417 176.786 86.3503 177.615C87.7589 178.444 88.8539 179.627 89.6351 181.166C90.4164 182.693 90.807 184.516 90.807 186.635V204H83.2431V187.984C83.2549 186.315 82.8288 185.013 81.9647 184.078C81.1006 183.131 79.9109 182.658 78.3958 182.658C77.3778 182.658 76.4782 182.877 75.6969 183.315C74.9275 183.753 74.3238 184.392 73.8858 185.232C73.4597 186.061 73.2407 187.061 73.2289 188.233ZM119.46 184.504L112.536 184.93C112.417 184.339 112.163 183.806 111.772 183.332C111.381 182.847 110.866 182.462 110.227 182.178C109.6 181.882 108.848 181.734 107.972 181.734C106.8 181.734 105.812 181.983 105.007 182.48C104.202 182.965 103.8 183.616 103.8 184.433C103.8 185.084 104.06 185.635 104.581 186.085C105.102 186.534 105.996 186.895 107.262 187.168L112.198 188.162C114.85 188.706 116.826 189.582 118.129 190.79C119.431 191.997 120.082 193.583 120.082 195.548C120.082 197.336 119.555 198.904 118.501 200.254C117.46 201.603 116.027 202.656 114.205 203.414C112.393 204.16 110.304 204.533 107.937 204.533C104.326 204.533 101.45 203.781 99.3075 202.278C97.1768 200.763 95.928 198.703 95.5611 196.099L103.001 195.708C103.226 196.809 103.77 197.649 104.634 198.229C105.498 198.798 106.605 199.082 107.955 199.082C109.28 199.082 110.346 198.827 111.151 198.318C111.967 197.797 112.382 197.129 112.393 196.312C112.382 195.625 112.092 195.063 111.523 194.625C110.955 194.175 110.079 193.832 108.896 193.595L104.173 192.654C101.509 192.121 99.5265 191.198 98.2244 189.884C96.9342 188.57 96.2891 186.895 96.2891 184.859C96.2891 183.107 96.7625 181.598 97.7095 180.332C98.6683 179.065 100.012 178.089 101.74 177.402C103.48 176.715 105.516 176.372 107.848 176.372C111.293 176.372 114.003 177.1 115.98 178.556C117.969 180.012 119.129 181.995 119.46 184.504ZM137.274 204.533C134.468 204.533 132.053 203.964 130.029 202.828C128.017 201.68 126.466 200.058 125.377 197.963C124.288 195.856 123.744 193.364 123.744 190.488C123.744 187.683 124.288 185.22 125.377 183.102C126.466 180.983 127.999 179.331 129.976 178.148C131.965 176.964 134.297 176.372 136.972 176.372C138.771 176.372 140.446 176.662 141.997 177.242C143.559 177.81 144.92 178.669 146.08 179.817C147.252 180.965 148.164 182.409 148.815 184.149C149.466 185.877 149.791 187.902 149.791 190.222V192.299H126.762V187.612H142.671C142.671 186.522 142.435 185.558 141.961 184.717C141.488 183.877 140.831 183.22 139.99 182.746C139.162 182.261 138.197 182.018 137.096 182.018C135.948 182.018 134.93 182.285 134.042 182.817C133.166 183.338 132.48 184.043 131.982 184.93C131.485 185.806 131.231 186.783 131.219 187.86V192.317C131.219 193.666 131.468 194.832 131.965 195.815C132.474 196.797 133.19 197.555 134.113 198.087C135.036 198.62 136.131 198.886 137.398 198.886C138.238 198.886 139.008 198.768 139.706 198.531C140.405 198.295 141.002 197.939 141.499 197.466C141.997 196.992 142.375 196.412 142.636 195.726L149.632 196.188C149.276 197.868 148.548 199.336 147.448 200.591C146.359 201.834 144.95 202.804 143.222 203.503C141.505 204.189 139.523 204.533 137.274 204.533ZM188.286 185.818C188.286 189.784 187.534 193.157 186.031 195.939C184.539 198.721 182.503 200.845 179.923 202.313C177.354 203.769 174.466 204.497 171.258 204.497C168.026 204.497 165.126 203.763 162.558 202.295C159.989 200.828 157.959 198.703 156.468 195.921C154.976 193.139 154.23 189.772 154.23 185.818C154.23 181.853 154.976 178.479 156.468 175.697C157.959 172.916 159.989 170.797 162.558 169.341C165.126 167.873 168.026 167.139 171.258 167.139C174.466 167.139 177.354 167.873 179.923 169.341C182.503 170.797 184.539 172.916 186.031 175.697C187.534 178.479 188.286 181.853 188.286 185.818ZM180.491 185.818C180.491 183.25 180.106 181.083 179.337 179.32C178.579 177.556 177.508 176.218 176.123 175.307C174.738 174.395 173.116 173.94 171.258 173.94C169.4 173.94 167.778 174.395 166.393 175.307C165.008 176.218 163.931 177.556 163.161 179.32C162.404 181.083 162.025 183.25 162.025 185.818C162.025 188.387 162.404 190.553 163.161 192.317C163.931 194.08 165.008 195.418 166.393 196.33C167.778 197.241 169.4 197.697 171.258 197.697C173.116 197.697 174.738 197.241 176.123 196.33C177.508 195.418 178.579 194.08 179.337 192.317C180.106 190.553 180.491 188.387 180.491 185.818ZM193.839 214.227V176.727H201.296V181.308H201.634C201.965 180.574 202.444 179.829 203.072 179.071C203.711 178.302 204.54 177.662 205.558 177.153C206.587 176.633 207.866 176.372 209.393 176.372C211.381 176.372 213.216 176.893 214.897 177.935C216.578 178.964 217.921 180.521 218.928 182.604C219.934 184.676 220.437 187.274 220.437 190.399C220.437 193.441 219.946 196.01 218.963 198.105C217.992 200.188 216.667 201.769 214.986 202.846C213.317 203.911 211.446 204.444 209.375 204.444C207.907 204.444 206.658 204.201 205.629 203.716C204.611 203.231 203.776 202.621 203.125 201.887C202.474 201.141 201.977 200.39 201.634 199.632H201.403V214.227H193.839ZM201.243 190.364C201.243 191.985 201.468 193.4 201.918 194.607C202.367 195.815 203.018 196.756 203.871 197.43C204.723 198.093 205.759 198.425 206.978 198.425C208.209 198.425 209.251 198.087 210.103 197.413C210.955 196.726 211.6 195.779 212.038 194.572C212.488 193.353 212.713 191.95 212.713 190.364C212.713 188.789 212.494 187.404 212.056 186.209C211.618 185.013 210.973 184.078 210.121 183.403C209.268 182.729 208.221 182.391 206.978 182.391C205.747 182.391 204.705 182.717 203.853 183.368C203.013 184.019 202.367 184.942 201.918 186.138C201.468 187.333 201.243 188.742 201.243 190.364ZM248.171 184.504L241.246 184.93C241.128 184.339 240.874 183.806 240.483 183.332C240.092 182.847 239.577 182.462 238.938 182.178C238.311 181.882 237.559 181.734 236.683 181.734C235.511 181.734 234.523 181.983 233.718 182.48C232.913 182.965 232.511 183.616 232.511 184.433C232.511 185.084 232.771 185.635 233.292 186.085C233.813 186.534 234.706 186.895 235.973 187.168L240.909 188.162C243.561 188.706 245.537 189.582 246.839 190.79C248.142 191.997 248.793 193.583 248.793 195.548C248.793 197.336 248.266 198.904 247.212 200.254C246.171 201.603 244.738 202.656 242.915 203.414C241.104 204.16 239.015 204.533 236.648 204.533C233.037 204.533 230.161 203.781 228.018 202.278C225.888 200.763 224.639 198.703 224.272 196.099L231.712 195.708C231.937 196.809 232.481 197.649 233.345 198.229C234.209 198.798 235.316 199.082 236.665 199.082C237.991 199.082 239.057 198.827 239.862 198.318C240.678 197.797 241.093 197.129 241.104 196.312C241.093 195.625 240.803 195.063 240.234 194.625C239.666 194.175 238.79 193.832 237.607 193.595L232.884 192.654C230.22 192.121 228.237 191.198 226.935 189.884C225.645 188.57 225 186.895 225 184.859C225 183.107 225.473 181.598 226.42 180.332C227.379 179.065 228.723 178.089 230.451 177.402C232.191 176.715 234.227 176.372 236.559 176.372C240.004 176.372 242.714 177.1 244.691 178.556C246.68 180.012 247.84 181.995 248.171 184.504Z" fill="#0B0800"/>
<g clip-path="url(#clip0_2769_79191)">
<path d="M53 25.0388L59.7056 18.3587C69.3291 8.77172 84.932 8.77173 94.5556 18.3587L130.412 54.079L106.282 78.1179L53 25.0388Z" fill="#00328B"/>
<path d="M122.517 94.0842L146.868 69.8258L197.965 120.729L191.039 127.629C181.416 137.216 165.813 137.216 156.189 127.629L122.517 94.0842Z" fill="#00328B"/>
<path d="M94.9006 127.937C85.277 137.524 69.6741 137.524 60.0506 127.937L53.345 121.257L114.457 60.3763L138.588 84.4152L94.9006 127.937Z" fill="#052969"/>
<path d="M138.59 84.416L114.46 60.3771L156.575 18.4218C166.199 8.83481 181.802 8.83481 191.425 18.4218L198.131 25.1019L138.59 84.416Z" fill="#052969"/>
<path d="M149.748 25.0195L156.454 18.3394C166.077 8.75244 181.68 8.75245 191.304 18.3394L228.575 55.4687C238.198 65.0557 238.198 80.5992 228.575 90.1862L221.869 96.8663L149.748 25.0195Z" fill="#00328B"/>
<path d="M191.022 127.654C181.398 137.241 165.795 137.241 156.172 127.654L149.466 120.974L221.858 48.8572L228.563 55.5373C238.187 65.1243 238.187 80.6679 228.563 90.2549L191.022 127.654Z" fill="#1346A0"/>
<path d="M22.425 90.8229C12.8014 81.2359 12.8014 65.6923 22.425 56.1053L29.1306 49.4252L101.522 121.542L94.8167 128.222C85.1931 137.809 69.5903 137.809 59.9667 128.222L22.425 90.8229Z" fill="#00328B"/>
<path d="M29.1284 97.4187L22.4228 90.7386C12.7993 81.1516 12.7993 65.608 22.4228 56.0211L59.9646 18.622C69.5881 9.035 85.191 9.03502 94.8146 18.622L101.52 25.3021L29.1284 97.4187Z" fill="#1346A0"/>
</g>
<path d="M3.936 235.36C3.936 234.32 4.112 233.304 4.464 232.312C4.832 231.304 5.36 230.392 6.048 229.576C6.752 228.744 7.608 228.088 8.616 227.608C9.624 227.112 10.768 226.864 12.048 226.864C13.568 226.864 14.872 227.216 15.96 227.92C17.048 228.608 17.856 229.496 18.384 230.584L16.68 231.688C16.344 230.968 15.912 230.4 15.384 229.984C14.872 229.552 14.312 229.248 13.704 229.072C13.112 228.896 12.528 228.808 11.952 228.808C11.008 228.808 10.168 229 9.432 229.384C8.712 229.768 8.104 230.28 7.608 230.92C7.112 231.56 6.736 232.28 6.48 233.08C6.24 233.864 6.12 234.656 6.12 235.456C6.12 236.336 6.264 237.184 6.552 238C6.856 238.816 7.272 239.536 7.8 240.16C8.328 240.784 8.952 241.28 9.672 241.648C10.392 242.016 11.176 242.2 12.024 242.2C12.616 242.2 13.224 242.096 13.848 241.888C14.472 241.68 15.056 241.36 15.6 240.928C16.144 240.48 16.576 239.904 16.896 239.2L18.696 240.184C18.344 241.032 17.8 241.752 17.064 242.344C16.328 242.936 15.504 243.384 14.592 243.688C13.696 243.992 12.808 244.144 11.928 244.144C10.76 244.144 9.688 243.896 8.712 243.4C7.736 242.888 6.888 242.216 6.168 241.384C5.464 240.536 4.912 239.592 4.512 238.552C4.128 237.496 3.936 236.432 3.936 235.36ZM21.9034 238.984V231.472H24.0154V238.576C24.0154 239.856 24.2394 240.816 24.6874 241.456C25.1354 242.096 25.7994 242.416 26.6794 242.416C27.2554 242.416 27.8074 242.296 28.3354 242.056C28.8794 241.8 29.3674 241.44 29.7994 240.976C30.2314 240.512 30.5674 239.96 30.8074 239.32V231.472H32.9194V241.6C32.9194 241.856 32.9674 242.048 33.0634 242.176C33.1754 242.288 33.3514 242.352 33.5914 242.368V244C33.3514 244.032 33.1594 244.048 33.0154 244.048C32.8874 244.064 32.7594 244.072 32.6314 244.072C32.2314 244.072 31.8874 243.952 31.5994 243.712C31.3114 243.456 31.1594 243.144 31.1434 242.776L31.0954 241.312C30.5514 242.24 29.8154 242.96 28.8874 243.472C27.9754 243.984 26.9754 244.24 25.8874 244.24C24.5754 244.24 23.5834 243.8 22.9114 242.92C22.2394 242.024 21.9034 240.712 21.9034 238.984ZM41.6934 244.24C40.6534 244.24 39.6774 244.072 38.7654 243.736C37.8534 243.384 37.0694 242.864 36.4134 242.176L37.2294 240.688C37.9494 241.36 38.6694 241.84 39.3894 242.128C40.1094 242.416 40.8454 242.56 41.5974 242.56C42.4614 242.56 43.1654 242.4 43.7094 242.08C44.2534 241.744 44.5254 241.256 44.5254 240.616C44.5254 240.152 44.3814 239.808 44.0934 239.584C43.8214 239.36 43.4294 239.176 42.9174 239.032C42.4054 238.872 41.7974 238.696 41.0934 238.504C40.2294 238.248 39.5014 237.976 38.9094 237.688C38.3174 237.4 37.8694 237.04 37.5654 236.608C37.2614 236.176 37.1094 235.632 37.1094 234.976C37.1094 234.176 37.3174 233.504 37.7334 232.96C38.1494 232.4 38.7174 231.976 39.4374 231.688C40.1734 231.4 41.0054 231.256 41.9334 231.256C42.8614 231.256 43.7014 231.4 44.4534 231.688C45.2054 231.976 45.8534 232.4 46.3974 232.96L45.4374 234.424C44.9414 233.912 44.3974 233.536 43.8054 233.296C43.2134 233.04 42.5494 232.912 41.8134 232.912C41.3814 232.912 40.9574 232.968 40.5414 233.08C40.1254 233.176 39.7814 233.36 39.5094 233.632C39.2374 233.888 39.1014 234.256 39.1014 234.736C39.1014 235.136 39.2054 235.456 39.4134 235.696C39.6374 235.92 39.9574 236.112 40.3734 236.272C40.8054 236.432 41.3254 236.608 41.9334 236.8C42.8774 237.072 43.6934 237.344 44.3814 237.616C45.0854 237.888 45.6294 238.24 46.0134 238.672C46.3974 239.104 46.5894 239.704 46.5894 240.472C46.5894 241.656 46.1414 242.584 45.2454 243.256C44.3494 243.912 43.1654 244.24 41.6934 244.24ZM56.5562 243.376C56.3802 243.456 56.1402 243.56 55.8362 243.688C55.5322 243.816 55.1802 243.928 54.7802 244.024C54.3802 244.12 53.9562 244.168 53.5082 244.168C52.9962 244.168 52.5242 244.08 52.0922 243.904C51.6602 243.712 51.3162 243.424 51.0602 243.04C50.8042 242.64 50.6762 242.144 50.6762 241.552V233.128H48.9722V231.472H50.6762V227.296H52.7882V231.472H55.5962V233.128H52.7882V240.904C52.8202 241.352 52.9722 241.688 53.2442 241.912C53.5162 242.12 53.8362 242.224 54.2042 242.224C54.6202 242.224 55.0042 242.152 55.3562 242.008C55.7082 241.864 55.9402 241.76 56.0522 241.696L56.5562 243.376ZM64.7816 244.24C63.8376 244.24 62.9816 244.072 62.2136 243.736C61.4456 243.384 60.7816 242.912 60.2216 242.32C59.6616 241.712 59.2296 241.016 58.9256 240.232C58.6216 239.448 58.4696 238.624 58.4696 237.76C58.4696 236.88 58.6216 236.048 58.9256 235.264C59.2296 234.48 59.6616 233.792 60.2216 233.2C60.7816 232.592 61.4456 232.12 62.2136 231.784C62.9976 231.432 63.8616 231.256 64.8056 231.256C65.7336 231.256 66.5816 231.432 67.3496 231.784C68.1176 232.12 68.7816 232.592 69.3416 233.2C69.9176 233.792 70.3576 234.48 70.6616 235.264C70.9656 236.048 71.1176 236.88 71.1176 237.76C71.1176 238.624 70.9656 239.448 70.6616 240.232C70.3576 241.016 69.9256 241.712 69.3656 242.32C68.8056 242.912 68.1336 243.384 67.3496 243.736C66.5816 244.072 65.7256 244.24 64.7816 244.24ZM60.6296 237.784C60.6296 238.648 60.8136 239.432 61.1816 240.136C61.5656 240.84 62.0696 241.4 62.6936 241.816C63.3176 242.216 64.0136 242.416 64.7816 242.416C65.5496 242.416 66.2456 242.208 66.8696 241.792C67.5096 241.376 68.0136 240.816 68.3816 240.112C68.7656 239.392 68.9576 238.6 68.9576 237.736C68.9576 236.872 68.7656 236.088 68.3816 235.384C68.0136 234.68 67.5096 234.12 66.8696 233.704C66.2456 233.288 65.5496 233.08 64.7816 233.08C64.0136 233.08 63.3176 233.296 62.6936 233.728C62.0696 234.144 61.5656 234.704 61.1816 235.408C60.8136 236.112 60.6296 236.904 60.6296 237.784ZM93.5248 244H91.4128V236.992C91.4128 235.68 91.1968 234.712 90.7648 234.088C90.3488 233.464 89.7248 233.152 88.8928 233.152C88.0448 233.152 87.2768 233.464 86.5888 234.088C85.9008 234.696 85.4128 235.488 85.1248 236.464V244H83.0128V236.992C83.0128 235.664 82.8048 234.696 82.3888 234.088C81.9728 233.464 81.3488 233.152 80.5168 233.152C79.6848 233.152 78.9168 233.456 78.2128 234.064C77.5248 234.656 77.0368 235.448 76.7488 236.44V244H74.6368V231.472H76.5568V234.16C77.0688 233.232 77.7328 232.52 78.5488 232.024C79.3648 231.512 80.2848 231.256 81.3088 231.256C82.3488 231.256 83.1808 231.544 83.8048 232.12C84.4288 232.68 84.8128 233.408 84.9568 234.304C85.5168 233.312 86.1968 232.56 86.9968 232.048C87.7968 231.52 88.7088 231.256 89.7328 231.256C90.4528 231.256 91.0528 231.392 91.5328 231.664C92.0288 231.92 92.4208 232.288 92.7088 232.768C92.9968 233.232 93.2048 233.784 93.3328 234.424C93.4608 235.064 93.5248 235.76 93.5248 236.512V244ZM105.135 244V226.96H107.295V244H105.135ZM122.865 244H120.753V236.992C120.753 235.664 120.545 234.696 120.129 234.088C119.729 233.464 119.113 233.152 118.281 233.152C117.705 233.152 117.129 233.296 116.553 233.584C115.993 233.872 115.489 234.264 115.041 234.76C114.609 235.24 114.297 235.8 114.105 236.44V244H111.993V231.472H113.913V234.16C114.249 233.568 114.681 233.056 115.209 232.624C115.737 232.192 116.337 231.856 117.009 231.616C117.681 231.376 118.385 231.256 119.121 231.256C119.841 231.256 120.441 231.392 120.921 231.664C121.417 231.92 121.801 232.288 122.073 232.768C122.361 233.232 122.561 233.784 122.673 234.424C122.801 235.064 122.865 235.76 122.865 236.512V244ZM133.472 243.376C133.296 243.456 133.056 243.56 132.752 243.688C132.448 243.816 132.096 243.928 131.696 244.024C131.296 244.12 130.872 244.168 130.424 244.168C129.912 244.168 129.44 244.08 129.008 243.904C128.576 243.712 128.232 243.424 127.976 243.04C127.72 242.64 127.592 242.144 127.592 241.552V233.128H125.888V231.472H127.592V227.296H129.704V231.472H132.512V233.128H129.704V240.904C129.736 241.352 129.888 241.688 130.16 241.912C130.432 242.12 130.752 242.224 131.12 242.224C131.536 242.224 131.92 242.152 132.272 242.008C132.624 241.864 132.856 241.76 132.968 241.696L133.472 243.376ZM141.77 244.24C140.826 244.24 139.962 244.072 139.178 243.736C138.41 243.384 137.738 242.912 137.162 242.32C136.602 241.712 136.162 241.016 135.842 240.232C135.538 239.448 135.386 238.616 135.386 237.736C135.386 236.552 135.658 235.472 136.202 234.496C136.746 233.52 137.498 232.736 138.458 232.144C139.434 231.552 140.546 231.256 141.794 231.256C143.058 231.256 144.154 231.56 145.082 232.168C146.026 232.76 146.754 233.544 147.266 234.52C147.794 235.48 148.058 236.52 148.058 237.64C148.058 237.8 148.05 237.96 148.034 238.12C148.034 238.264 148.026 238.376 148.01 238.456H137.618C137.682 239.272 137.906 240 138.29 240.64C138.69 241.264 139.202 241.76 139.826 242.128C140.45 242.48 141.122 242.656 141.842 242.656C142.61 242.656 143.33 242.464 144.002 242.08C144.69 241.696 145.162 241.192 145.418 240.568L147.242 241.072C146.97 241.68 146.562 242.224 146.018 242.704C145.49 243.184 144.858 243.56 144.122 243.832C143.402 244.104 142.618 244.24 141.77 244.24ZM137.546 236.992H146.09C146.026 236.176 145.794 235.456 145.394 234.832C144.994 234.208 144.482 233.72 143.858 233.368C143.234 233.016 142.546 232.84 141.794 232.84C141.058 232.84 140.378 233.016 139.754 233.368C139.13 233.72 138.618 234.208 138.218 234.832C137.834 235.456 137.61 236.176 137.546 236.992ZM156.358 244.144C155.51 244.144 154.726 243.976 154.006 243.64C153.302 243.288 152.694 242.816 152.182 242.224C151.67 241.616 151.27 240.928 150.982 240.16C150.71 239.392 150.574 238.592 150.574 237.76C150.574 236.88 150.71 236.048 150.982 235.264C151.27 234.48 151.67 233.792 152.182 233.2C152.71 232.592 153.326 232.12 154.03 231.784C154.734 231.432 155.518 231.256 156.382 231.256C157.422 231.256 158.326 231.512 159.094 232.024C159.878 232.536 160.534 233.184 161.062 233.968V231.472H162.934V243.856C162.934 245.04 162.646 246.04 162.07 246.856C161.51 247.672 160.742 248.288 159.766 248.704C158.806 249.136 157.734 249.352 156.55 249.352C155.142 249.352 153.99 249.104 153.094 248.608C152.198 248.112 151.454 247.44 150.862 246.592L152.086 245.512C152.582 246.248 153.222 246.8 154.006 247.168C154.806 247.536 155.654 247.72 156.55 247.72C157.318 247.72 158.022 247.576 158.662 247.288C159.318 247.016 159.838 246.592 160.222 246.016C160.622 245.44 160.822 244.72 160.822 243.856V241.648C160.358 242.416 159.718 243.024 158.902 243.472C158.102 243.92 157.254 244.144 156.358 244.144ZM157.006 242.416C157.454 242.416 157.886 242.336 158.302 242.176C158.718 242.016 159.102 241.808 159.454 241.552C159.806 241.28 160.102 240.976 160.342 240.64C160.582 240.304 160.742 239.96 160.822 239.608V236.008C160.598 235.432 160.278 234.928 159.862 234.496C159.446 234.048 158.974 233.704 158.446 233.464C157.918 233.208 157.374 233.08 156.814 233.08C156.174 233.08 155.598 233.216 155.086 233.488C154.59 233.76 154.166 234.128 153.814 234.592C153.462 235.04 153.19 235.544 152.998 236.104C152.806 236.664 152.71 237.232 152.71 237.808C152.71 238.432 152.822 239.024 153.046 239.584C153.27 240.128 153.574 240.616 153.958 241.048C154.342 241.48 154.798 241.816 155.326 242.056C155.854 242.296 156.414 242.416 157.006 242.416ZM173.926 233.32C172.87 233.336 171.934 233.608 171.118 234.136C170.318 234.648 169.75 235.36 169.414 236.272V244H167.302V231.472H169.27V234.376C169.702 233.512 170.27 232.816 170.974 232.288C171.694 231.744 172.446 231.44 173.23 231.376C173.39 231.376 173.526 231.376 173.638 231.376C173.75 231.376 173.846 231.384 173.926 231.4V233.32ZM175.997 240.376C175.997 239.576 176.221 238.888 176.669 238.312C177.133 237.72 177.765 237.264 178.565 236.944C179.365 236.624 180.293 236.464 181.349 236.464C181.909 236.464 182.501 236.512 183.125 236.608C183.749 236.688 184.301 236.816 184.781 236.992V236.08C184.781 235.12 184.493 234.368 183.917 233.824C183.341 233.264 182.525 232.984 181.469 232.984C180.781 232.984 180.117 233.112 179.477 233.368C178.853 233.608 178.189 233.96 177.485 234.424L176.717 232.936C177.533 232.376 178.349 231.96 179.165 231.688C179.981 231.4 180.829 231.256 181.709 231.256C183.309 231.256 184.573 231.704 185.501 232.6C186.429 233.48 186.893 234.712 186.893 236.296V241.6C186.893 241.856 186.941 242.048 187.037 242.176C187.149 242.288 187.325 242.352 187.565 242.368V244C187.357 244.032 187.173 244.056 187.013 244.072C186.869 244.088 186.749 244.096 186.653 244.096C186.157 244.096 185.781 243.96 185.525 243.688C185.285 243.416 185.149 243.128 185.117 242.824L185.069 242.032C184.525 242.736 183.813 243.28 182.933 243.664C182.053 244.048 181.181 244.24 180.317 244.24C179.485 244.24 178.741 244.072 178.085 243.736C177.429 243.384 176.917 242.92 176.549 242.344C176.181 241.752 175.997 241.096 175.997 240.376ZM184.157 241.264C184.349 241.04 184.501 240.816 184.613 240.592C184.725 240.352 184.781 240.152 184.781 239.992V238.432C184.285 238.24 183.765 238.096 183.221 238C182.677 237.888 182.141 237.832 181.613 237.832C180.541 237.832 179.669 238.048 178.997 238.48C178.341 238.896 178.013 239.472 178.013 240.208C178.013 240.608 178.117 241 178.325 241.384C178.549 241.752 178.869 242.056 179.285 242.296C179.717 242.536 180.245 242.656 180.869 242.656C181.525 242.656 182.149 242.528 182.741 242.272C183.333 242 183.805 241.664 184.157 241.264ZM197.616 243.376C197.44 243.456 197.2 243.56 196.896 243.688C196.592 243.816 196.24 243.928 195.84 244.024C195.44 244.12 195.016 244.168 194.568 244.168C194.056 244.168 193.584 244.08 193.152 243.904C192.72 243.712 192.376 243.424 192.12 243.04C191.864 242.64 191.736 242.144 191.736 241.552V233.128H190.032V231.472H191.736V227.296H193.848V231.472H196.656V233.128H193.848V240.904C193.88 241.352 194.032 241.688 194.304 241.912C194.576 242.12 194.896 242.224 195.264 242.224C195.68 242.224 196.064 242.152 196.416 242.008C196.768 241.864 197 241.76 197.112 241.696L197.616 243.376ZM200.534 244V231.472H202.646V244H200.534ZM200.534 229.12V226.48H202.646V229.12H200.534ZM212.497 244.24C211.553 244.24 210.697 244.072 209.929 243.736C209.161 243.384 208.497 242.912 207.937 242.32C207.377 241.712 206.945 241.016 206.641 240.232C206.337 239.448 206.185 238.624 206.185 237.76C206.185 236.88 206.337 236.048 206.641 235.264C206.945 234.48 207.377 233.792 207.937 233.2C208.497 232.592 209.161 232.12 209.929 231.784C210.713 231.432 211.577 231.256 212.521 231.256C213.449 231.256 214.297 231.432 215.065 231.784C215.833 232.12 216.497 232.592 217.057 233.2C217.633 233.792 218.073 234.48 218.377 235.264C218.681 236.048 218.833 236.88 218.833 237.76C218.833 238.624 218.681 239.448 218.377 240.232C218.073 241.016 217.641 241.712 217.081 242.32C216.521 242.912 215.849 243.384 215.065 243.736C214.297 244.072 213.441 244.24 212.497 244.24ZM208.345 237.784C208.345 238.648 208.529 239.432 208.897 240.136C209.281 240.84 209.785 241.4 210.409 241.816C211.033 242.216 211.729 242.416 212.497 242.416C213.265 242.416 213.961 242.208 214.585 241.792C215.225 241.376 215.729 240.816 216.097 240.112C216.481 239.392 216.673 238.6 216.673 237.736C216.673 236.872 216.481 236.088 216.097 235.384C215.729 234.68 215.225 234.12 214.585 233.704C213.961 233.288 213.265 233.08 212.497 233.08C211.729 233.08 211.033 233.296 210.409 233.728C209.785 234.144 209.281 234.704 208.897 235.408C208.529 236.112 208.345 236.904 208.345 237.784ZM233.224 244H231.112V236.992C231.112 235.664 230.904 234.696 230.488 234.088C230.088 233.464 229.472 233.152 228.64 233.152C228.064 233.152 227.488 233.296 226.912 233.584C226.352 233.872 225.848 234.264 225.4 234.76C224.968 235.24 224.656 235.8 224.464 236.44V244H222.352V231.472H224.272V234.16C224.608 233.568 225.04 233.056 225.568 232.624C226.096 232.192 226.696 231.856 227.368 231.616C228.04 231.376 228.744 231.256 229.48 231.256C230.2 231.256 230.8 231.392 231.28 231.664C231.776 231.92 232.16 232.288 232.432 232.768C232.72 233.232 232.92 233.784 233.032 234.424C233.16 235.064 233.224 235.76 233.224 236.512V244ZM241.764 244.24C240.724 244.24 239.748 244.072 238.836 243.736C237.924 243.384 237.14 242.864 236.484 242.176L237.3 240.688C238.02 241.36 238.74 241.84 239.46 242.128C240.18 242.416 240.916 242.56 241.668 242.56C242.532 242.56 243.236 242.4 243.78 242.08C244.324 241.744 244.596 241.256 244.596 240.616C244.596 240.152 244.452 239.808 244.164 239.584C243.892 239.36 243.5 239.176 242.988 239.032C242.476 238.872 241.868 238.696 241.164 238.504C240.3 238.248 239.572 237.976 238.98 237.688C238.388 237.4 237.94 237.04 237.636 236.608C237.332 236.176 237.18 235.632 237.18 234.976C237.18 234.176 237.388 233.504 237.804 232.96C238.22 232.4 238.788 231.976 239.508 231.688C240.244 231.4 241.076 231.256 242.004 231.256C242.932 231.256 243.772 231.4 244.524 231.688C245.276 231.976 245.924 232.4 246.468 232.96L245.508 234.424C245.012 233.912 244.468 233.536 243.876 233.296C243.284 233.04 242.62 232.912 241.884 232.912C241.452 232.912 241.028 232.968 240.612 233.08C240.196 233.176 239.852 233.36 239.58 233.632C239.308 233.888 239.172 234.256 239.172 234.736C239.172 235.136 239.276 235.456 239.484 235.696C239.708 235.92 240.028 236.112 240.444 236.272C240.876 236.432 241.396 236.608 242.004 236.8C242.948 237.072 243.764 237.344 244.452 237.616C245.156 237.888 245.7 238.24 246.084 238.672C246.468 239.104 246.66 239.704 246.66 240.472C246.66 241.656 246.212 242.584 245.316 243.256C244.42 243.912 243.236 244.24 241.764 244.24Z" fill="#8D8D8D"/>
<defs>
<clipPath id="clip0_2769_79191">
<rect width="241" height="150.625" fill="white" transform="translate(5)"/>
</clipPath>
</defs>
</svg>
